<svg xmlns="http://www.w3.org/2000/svg" xmlns:xlink="http://www.w3.org/1999/xlink" width="399.25" height="261.45" viewBox="0 0 399.25 261.45"><defs><radialGradient id="a" cx="-2142.53" cy="404.04" r="76.69" gradientTransform="matrix(0.93, 0.54, -0.94, 0.54, 2498.04, 1054.31)" gradientUnits="userSpaceOnUse"><stop offset="0.1" stop-color="#d4088c"></stop><stop offset="0.2" stop-color="#d71c95" stop-opacity="0.92"></stop><stop offset="0.41" stop-color="#e050ad" stop-opacity="0.71"></stop><stop offset="0.7" stop-color="#efa3d4" stop-opacity="0.37"></stop><stop offset="1" stop-color="#fff" stop-opacity="0"></stop></radialGradient><radialGradient id="b" cx="-2001.66" cy="493.2" r="40.31" gradientTransform="matrix(0.87, 0.5, -0.87, 0.5, 2345.29, 987.18)" xlink:href="#a"></radialGradient><radialGradient id="c" cx="-2043.39" cy="336.17" r="95.26" gradientTransform="matrix(0.78, 0.63, -1.03, 0.48, 2210.11, 1273.88)" gradientUnits="userSpaceOnUse"><stop offset="0.2" stop-color="#25bfec"></stop><stop offset="0.29" stop-color="#34c3ed" stop-opacity="0.93"></stop><stop offset="0.45" stop-color="#5ccff1" stop-opacity="0.75"></stop><stop offset="0.68" stop-color="#9de2f6" stop-opacity="0.45"></stop><stop offset="0.97" stop-color="#f5fcfe" stop-opacity="0.05"></stop><stop offset="1" stop-color="#fff" stop-opacity="0"></stop></radialGradient><linearGradient id="d" x1="290.47" y1="128.01" x2="359.2" y2="128.01" gradientUnits="userSpaceOnUse"><stop offset="0.06" stop-color="#1f89c9"></stop><stop offset="0.41" stop-color="#1670af"></stop><stop offset="1" stop-color="#084986"></stop></linearGradient><linearGradient id="e" x1="296.33" y1="113.04" x2="393.79" y2="113.04" gradientUnits="userSpaceOnUse"><stop offset="0.06" stop-color="#3a97cf"></stop><stop offset="0.3" stop-color="#3688c0"></stop><stop offset="1" stop-color="#2b6297"></stop></linearGradient><linearGradient id="f" x1="142.69" y1="43.11" x2="211.42" y2="43.11" xlink:href="#d"></linearGradient><linearGradient id="g" x1="148.55" y1="28.13" x2="246.01" y2="28.13" xlink:href="#e"></linearGradient><linearGradient id="h" x1="-346.36" y1="66" x2="-237.05" y2="66" gradientTransform="translate(522.91)" gradientUnits="userSpaceOnUse"><stop offset="0" stop-color="#c7193d"></stop><stop offset="0.5" stop-color="#d94225"></stop><stop offset="1" stop-color="#ed6e0b"></stop></linearGradient><linearGradient id="i" x1="-324.92" y1="119.87" x2="-263.53" y2="119.87" gradientTransform="translate(522.91)" gradientUnits="userSpaceOnUse"><stop offset="0" stop-color="#ed6e0b"></stop><stop offset="0.5" stop-color="#d94225"></stop><stop offset="1" stop-color="#c7193d"></stop></linearGradient><linearGradient id="j" x1="-255.44" y1="113.14" x2="-372.4" y2="119.39" xlink:href="#h"></linearGradient><linearGradient id="k" x1="175.1" y1="66.31" x2="284.41" y2="66.31" gradientUnits="userSpaceOnUse"><stop offset="0" stop-color="#25bfec"></stop><stop offset="0.72" stop-color="#2096d2"></stop><stop offset="0.94" stop-color="#1f89c9"></stop></linearGradient><linearGradient id="l" x1="142.77" y1="212.93" x2="211.49" y2="212.93" gradientTransform="matrix(1, 0, 0, 1, 0, 0)" xlink:href="#i"></linearGradient><linearGradient id="m" x1="148.63" y1="197.96" x2="246.09" y2="197.96" gradientUnits="userSpaceOnUse"><stop offset="0" stop-color="#f18b3c"></stop><stop offset="0.32" stop-color="#e7774b"></stop><stop offset="1" stop-color="#d44e6a"></stop></linearGradient><linearGradient id="n" x1="-5.32" y1="128.01" x2="63.4" y2="128.01" xlink:href="#d"></linearGradient><linearGradient id="o" x1="0.54" y1="113.04" x2="98" y2="113.04" xlink:href="#e"></linearGradient></defs><g style="isolation:isolate"><ellipse cx="137.23" cy="110.23" rx="100.91" ry="58.46" transform="translate(-0.66 0.82) rotate(-0.34)" opacity="0.3" fill="url(#a)" style="mix-blend-mode:lighten"></ellipse><ellipse cx="184.74" cy="232.94" rx="49.37" ry="28.5" opacity="0.3" fill="url(#b)" style="mix-blend-mode:lighten"></ellipse><ellipse cx="277.36" cy="146.09" rx="122.84" ry="75.18" transform="translate(-19.54 45.49) rotate(-9.06)" opacity="0.4" fill="url(#c)" style="mix-blend-mode:lighten"></ellipse><path d="M212.76,224.45a3,3,0,1,1-3-3A3,3,0,0,1,212.76,224.45Z" fill="#172f78" opacity="0.8"></path><circle cx="169.1" cy="103.42" r="1.67" fill="#172f78" opacity="0.4"></circle><circle cx="68.99" cy="40.79" r="2.47" fill="#ed6e0b" opacity="0.44"></circle><path d="M70,40.79a1,1,0,1,1-1-1A1,1,0,0,1,70,40.79Z" fill="#c7193d"></path><circle cx="119.77" cy="237.01" r="4.06" fill="#ed6e0b" opacity="0.44"></circle><path d="M121.45,237a1.68,1.68,0,1,1-1.68-1.69A1.68,1.68,0,0,1,121.45,237Z" fill="#c7193d"></path><circle cx="291.24" cy="25.16" r="4.06" fill="#ed6e0b" opacity="0.44"></circle><path d="M292.92,25.16a1.68,1.68,0,1,1-1.68-1.68A1.69,1.69,0,0,1,292.92,25.16Z" fill="#c7193d"></path><circle cx="188.49" cy="78.81" r="6.6" fill="#172f78" opacity="0.4"></circle><circle cx="188.49" cy="78.81" r="2.74" fill="#172f78" opacity="0.8"></circle><polygon points="203.05 126.65 188.1 78.49 188.53 78.55 310.58 95.64 310.5 96.17 188.87 79.14 203.57 126.49 203.05 126.65" fill="#084986"></polygon><rect x="131.16" y="154.34" width="0.57" height="11.14" transform="translate(-74.57 139.78) rotate(-45)" fill="#084986"></rect><rect x="138.21" y="165.17" width="0.57" height="3.57" transform="translate(-77.49 146.83) rotate(-45)" fill="#1f89c9"></rect><rect x="210.17" y="152.58" width="0.57" height="11.14" transform="translate(-50.19 195.13) rotate(-45)" fill="#03a7d3"></rect><rect x="217.04" y="163.43" width="0.57" height="3.18" transform="translate(-53.04 202) rotate(-45)" fill="#172f78"></rect><rect x="221.18" y="167.57" width="0.57" height="3.18" transform="translate(-54.76 206.08) rotate(-44.99)" fill="#172f78"></rect><rect x="210.33" y="35.07" width="0.57" height="11.14" transform="translate(32.94 160.82) rotate(-45)" fill="#172f78"></rect><rect x="217.2" y="45.92" width="0.57" height="3.18" transform="translate(30.1 167.7) rotate(-45)" fill="#03a7d3"></rect><rect x="221.33" y="50.06" width="0.57" height="3.18" transform="translate(28.39 171.83) rotate(-45)" fill="#03a7d3"></rect><rect x="227.54" y="53.34" width="0.57" height="9.03" transform="translate(25.82 178.04) rotate(-45)" fill="#03a7d3"></rect><rect x="331.04" y="77.21" width="0.57" height="3.57" transform="translate(41.15 257.36) rotate(-44.99)" fill="#084986"></rect><rect x="313.73" y="56.03" width="0.57" height="11.3" transform="translate(48.36 240.1) rotate(-45)" fill="#084986"></rect><rect x="112.17" y="50.87" width="0.57" height="3.57" transform="translate(-4.29 94.97) rotate(-45.01)" fill="#084986"></rect><rect x="105.13" y="40.04" width="0.57" height="11.14" transform="translate(-1.38 87.89) rotate(-45)" fill="#1f89c9"></rect><rect x="94.86" y="29.69" width="0.57" height="11.3" transform="translate(2.88 77.63) rotate(-45)" fill="#084986"></rect><rect x="83" y="17.83" width="0.57" height="11.3" transform="translate(7.79 65.77) rotate(-45)" fill="#084986"></rect><polygon points="167.5 225.71 167.31 225.6 52.32 159.21 52.7 158.55 167.5 224.82 300.03 147.9 300.42 148.56 167.5 225.71" fill="#1f89c9"></polygon><polygon points="312.18 141.74 311.8 141.07 346.31 121.04 232.85 55.53 233.23 54.87 347.84 121.04 312.18 141.74" fill="#1f89c9"></polygon><polygon points="40.53 152.41 18.68 139.79 151.62 62.63 152.01 63.29 20.21 139.79 40.92 151.74 40.53 152.41" fill="#1f89c9"></polygon><path d="M333.49,166.31a9.45,9.45,0,0,1-4.66-1.12l-31-17.89a3.1,3.1,0,0,1,0-5.82l53.83-31.08a10.27,10.27,0,0,1,9.32,0l31,17.89a3.1,3.1,0,0,1,0,5.82l-53.83,31.08A9.48,9.48,0,0,1,333.49,166.31ZM356.33,110a8.73,8.73,0,0,0-4.27,1l-53.84,31.08a2.35,2.35,0,0,0,0,4.5l31,17.89a9.47,9.47,0,0,0,8.55,0l53.84-31.08a2.35,2.35,0,0,0,0-4.5l-31-17.89A8.7,8.7,0,0,0,356.33,110Z" fill="#1f89c9"></path><path d="M393.79,121.42h0V106.56L375,109.07,361,101a9.83,9.83,0,0,0-8.93,0l-25.2,14.54-30.49,4.07v15.13h0a3.19,3.19,0,0,0,1.84,2.5l31,17.89a9.91,9.91,0,0,0,8.94,0L391.94,124a3.18,3.18,0,0,0,1.84-2.49h0Z" fill="url(#d)"></path><path d="M391.94,103.87,361,86A9.83,9.83,0,0,0,352,86l-53.84,31.08c-2.47,1.42-2.47,3.73,0,5.16l31,17.89a9.91,9.91,0,0,0,8.94,0L391.94,109C394.41,107.6,394.41,105.29,391.94,103.87Z" fill="url(#e)"></path><path d="M391.94,108.13l-53.83,31.08a9.91,9.91,0,0,1-8.94,0l-31-17.9a3.39,3.39,0,0,1-1.79-2.12c-.24,1.07.36,2.2,1.79,3l31,17.9a9.91,9.91,0,0,0,8.94,0L391.94,109c1.43-.83,2-2,1.8-3A3.43,3.43,0,0,1,391.94,108.13Z" fill="#fff"></path><polygon points="356.27 135.76 354.8 136.61 354.8 134.92 356.27 134.07 356.27 135.76" fill="#fff"></polygon><polygon points="359.34 133.99 357.87 134.84 357.87 133.14 359.34 132.3 359.34 133.99" fill="#fff"></polygon><polygon points="362.41 132.22 360.94 133.06 360.94 131.37 362.41 130.52 362.41 132.22" fill="#fff"></polygon><polygon points="359.9 137.1 358.43 137.95 358.43 136.25 359.9 135.41 359.9 137.1" fill="#fff"></polygon><polygon points="362.6 135.54 361.13 136.39 361.13 134.69 362.6 133.85 362.6 135.54" fill="#fff"></polygon><polygon points="372.25 126.53 370.79 127.38 370.79 125.69 372.25 124.84 372.25 126.53" fill="#fff"></polygon><polygon points="380.71 121.65 379.24 122.5 379.24 120.81 380.71 119.96 380.71 121.65" fill="#fff"></polygon><polygon points="365.48 130.45 364.01 131.29 364.01 129.6 365.48 128.75 365.48 130.45" fill="#fff"></polygon><polygon points="344.65 99.84 366.55 112.45 364.54 113.62 342.64 101.01 344.65 99.84" fill="#11203c"></polygon><polygon points="343.4 101.45 344.77 100.65 365.91 112.83 366.55 112.45 344.66 99.84 342.64 101.01 343.4 101.45" fill="#fff"></polygon><polygon points="350.79 96.29 372.69 108.91 370.67 110.07 348.77 97.46 350.79 96.29" fill="#11203c"></polygon><polygon points="349.53 97.9 350.91 97.1 372.05 109.28 372.69 108.91 350.79 96.29 348.77 97.46 349.53 97.9" fill="#fff"></polygon><polygon points="356.93 92.74 378.82 105.36 376.8 106.52 354.91 93.91 356.93 92.74" fill="#11203c"></polygon><polygon points="355.67 94.35 357.04 93.55 378.18 105.73 378.82 105.36 356.93 92.74 354.91 93.91 355.67 94.35" fill="#fff"></polygon><path d="M333.24,133.16a3.28,3.28,0,0,1-1.57-.37l-20.85-12a1.26,1.26,0,0,1-.71-1.07,1.6,1.6,0,0,1,.94-1.31l20.38-11.77a3.92,3.92,0,0,1,3.58-.14l20.85,12a1.25,1.25,0,0,1,.71,1.07,1.59,1.59,0,0,1-.95,1.31l-20.37,11.77A4.17,4.17,0,0,1,333.24,133.16Zm-1.3-.85a3.42,3.42,0,0,0,3-.13l20.38-11.77a1.15,1.15,0,0,0,.68-.84.74.74,0,0,0-.44-.59l-20.85-12a3.44,3.44,0,0,0-3,.13l-20.37,11.77c-.43.25-.68.55-.68.84a.74.74,0,0,0,.44.59Z" fill="#11203c"></path><path d="M323.6,145.58l-17.21-9.93a1.79,1.79,0,0,1-.74-1.42V133c0-.55.33-.8.74-.56l17.21,9.93a1.78,1.78,0,0,1,.74,1.42V145C324.34,145.57,324,145.82,323.6,145.58Z" fill="#11203c"></path><path d="M185.71,81.4a9.42,9.42,0,0,1-4.66-1.12l-31-17.89a3.09,3.09,0,0,1,0-5.82l53.83-31.08a10.34,10.34,0,0,1,9.32,0l31,17.89a3.5,3.5,0,0,1,2,2.91,3.48,3.48,0,0,1-2,2.91L190.36,80.28A9.41,9.41,0,0,1,185.71,81.4Zm22.84-56.27a8.7,8.7,0,0,0-4.27,1L150.44,57.23a2.79,2.79,0,0,0-1.66,2.25,2.79,2.79,0,0,0,1.66,2.25l31,17.89a9.47,9.47,0,0,0,8.55,0l53.84-31.08a2.78,2.78,0,0,0,1.65-2.25,2.75,2.75,0,0,0-1.65-2.24l-31-17.9A8.73,8.73,0,0,0,208.55,25.13Z" fill="#1f89c9"></path><path d="M246,36.51h0V21.65l-18.78,2.51L213.17,16a9.83,9.83,0,0,0-8.93,0L179,30.59l-30.49,4.06V49.78h0a3.18,3.18,0,0,0,1.84,2.5l31,17.89a9.83,9.83,0,0,0,8.93,0l53.84-31.08A3.2,3.2,0,0,0,246,36.6h0Z" fill="url(#f)"></path><path d="M244.16,19l-31-17.89a9.83,9.83,0,0,0-8.93,0L150.4,32.15c-2.47,1.42-2.47,3.73,0,5.16l31,17.89a9.89,9.89,0,0,0,8.93,0l53.84-31.08C246.63,22.69,246.63,20.39,244.16,19Z" fill="url(#g)"></path><path d="M244.16,23.22,190.32,54.3a9.89,9.89,0,0,1-8.93,0l-31-17.89a3.46,3.46,0,0,1-1.8-2.13c-.23,1.08.37,2.2,1.8,3l31,17.89a9.89,9.89,0,0,0,8.93,0l53.84-31.08c1.43-.83,2-1.95,1.8-3A3.46,3.46,0,0,1,244.16,23.22Z" fill="#fff"></path><polygon points="208.49 50.85 207.02 51.7 207.02 50.01 208.49 49.16 208.49 50.85" fill="#fff"></polygon><polygon points="211.56 49.08 210.09 49.93 210.09 48.23 211.56 47.39 211.56 49.08" fill="#fff"></polygon><polygon points="214.63 47.31 213.16 48.16 213.16 46.46 214.63 45.62 214.63 47.31" fill="#fff"></polygon><polygon points="212.12 52.19 210.65 53.04 210.65 51.34 212.12 50.5 212.12 52.19" fill="#fff"></polygon><polygon points="214.82 50.63 213.35 51.48 213.35 49.78 214.82 48.94 214.82 50.63" fill="#fff"></polygon><polygon points="224.47 41.63 223 42.47 223 40.78 224.47 39.93 224.47 41.63" fill="#fff"></polygon><polygon points="232.93 36.74 231.46 37.59 231.46 35.9 232.93 35.05 232.93 36.74" fill="#fff"></polygon><polygon points="217.69 45.54 216.23 46.38 216.23 44.69 217.69 43.84 217.69 45.54" fill="#fff"></polygon><polygon points="196.87 14.93 218.77 27.55 216.75 28.71 194.86 16.1 196.87 14.93" fill="#11203c"></polygon><polygon points="195.62 16.54 196.99 15.74 218.13 27.92 218.77 27.55 196.87 14.93 194.86 16.1 195.62 16.54" fill="#fff"></polygon><polygon points="203.01 11.38 224.91 24 222.89 25.16 200.99 12.55 203.01 11.38" fill="#11203c"></polygon><polygon points="201.75 12.99 203.13 12.19 224.26 24.37 224.91 24 203.01 11.38 200.99 12.55 201.75 12.99" fill="#fff"></polygon><polygon points="209.14 7.83 231.04 20.45 229.02 21.61 207.13 9 209.14 7.83" fill="#11203c"></polygon><polygon points="207.88 9.44 209.26 8.64 230.4 20.82 231.04 20.45 209.14 7.83 207.13 9 207.88 9.44" fill="#fff"></polygon><path d="M185.46,48.25a3.17,3.17,0,0,1-1.57-.37L163,35.84a1.26,1.26,0,0,1-.7-1.07,1.6,1.6,0,0,1,.94-1.31l20.38-11.77a4,4,0,0,1,3.58-.13l20.85,12a1.26,1.26,0,0,1,.71,1.07,1.64,1.64,0,0,1-.95,1.32L187.47,47.74A4.06,4.06,0,0,1,185.46,48.25Zm.2-26.51a3.51,3.51,0,0,0-1.74.43L163.54,33.93a1.13,1.13,0,0,0-.67.84.75.75,0,0,0,.44.6l20.85,12a3.42,3.42,0,0,0,3-.13L207.57,35.5a1.13,1.13,0,0,0,.67-.84.73.73,0,0,0-.43-.59L187,22A2.63,2.63,0,0,0,185.66,21.74Z" fill="#11203c"></path><path d="M175.82,60.67l-17.21-9.93a1.79,1.79,0,0,1-.74-1.42V48c0-.55.33-.8.74-.56l17.21,9.93a1.79,1.79,0,0,1,.74,1.42v1.28C176.56,60.66,176.23,60.91,175.82,60.67Z" fill="#11203c"></path><path d="M203.66,183.36a4.48,4.48,0,0,1-2.25-.53l-85.3-49.24a1.74,1.74,0,0,1-1-1.47,2.26,2.26,0,0,1,1.33-1.83L171.2,98.68a5.61,5.61,0,0,1,5.14-.2l85.3,49.25a1.71,1.71,0,0,1,1,1.46,2.27,2.27,0,0,1-1.33,1.84l-54.74,31.6A5.86,5.86,0,0,1,203.66,183.36Zm-2-1a5.09,5.09,0,0,0,4.56-.2L261,150.53c.66-.39,1-.87,1-1.34a1.15,1.15,0,0,0-.69-1L176.05,99a5.08,5.08,0,0,0-4.56.2l-54.74,31.61a1.74,1.74,0,0,0-1,1.33,1.18,1.18,0,0,0,.69,1Z" fill="#172f78" opacity="0.4"></path><path d="M203.66,169.92a4.48,4.48,0,0,1-2.25-.53l-85.3-49.24a1.74,1.74,0,0,1-1-1.47,2.27,2.27,0,0,1,1.33-1.84l54.74-31.6a5.61,5.61,0,0,1,5.14-.2l85.3,49.24a1.74,1.74,0,0,1,1,1.47,2.25,2.25,0,0,1-1.33,1.83l-54.74,31.61A6,6,0,0,1,203.66,169.92Zm-2-1a5.09,5.09,0,0,0,4.56-.2L261,137.08a1.74,1.74,0,0,0,1-1.33,1.18,1.18,0,0,0-.69-1l-85.3-49.24a5.08,5.08,0,0,0-4.56.2l-54.74,31.61c-.66.38-1,.86-1,1.33a1.15,1.15,0,0,0,.69,1Z" fill="#1f89c9"></path><path d="M284.15,56.34l-85-49.05A2.17,2.17,0,0,0,197.46,7h0l-1.57.55.55.13a2.81,2.81,0,0,0-.52,1L176.7,71.07a3.75,3.75,0,0,0,1.56,4.2l85,49.05a2.56,2.56,0,0,0,.62.26l-.21.46,1.5-.53h0a2.43,2.43,0,0,0,1.37-1.59l19.21-62.38A3.75,3.75,0,0,0,284.15,56.34Z" fill="url(#h)"></path><path d="M260.18,126.65l0,0L176.29,78.24a5.32,5.32,0,0,0-4.82.2l-54.22,31.3-1.81-.69.51,2.54h0a1.53,1.53,0,0,0,.82,1l84.69,48.9a5.38,5.38,0,0,0,4.82-.2l54.36-31.38a2.19,2.19,0,0,0,1.15-1.35h0l.52-2.47Z" fill="url(#i)"></path><path d="M201.55,159.27,116.26,110c-1.25-.72-1.09-2,.34-2.8l54.75-31.61a5.44,5.44,0,0,1,4.85-.2l85.29,49.25c1.25.72,1.09,2-.35,2.8L206.4,159.07A5.44,5.44,0,0,1,201.55,159.27Z" fill="url(#j)"></path><path d="M116.26,108.59l85.29,49.24a5.38,5.38,0,0,0,4.85-.2L261.14,126a2.72,2.72,0,0,0,.94-.85c.52.71.2,1.63-.94,2.28L206.4,159.07a5.44,5.44,0,0,1-4.85.2L116.26,110a1.29,1.29,0,0,1-.59-2A1.79,1.79,0,0,0,116.26,108.59Z" fill="#fff"></path><path d="M261.77,124.83l-85-49a3.77,3.77,0,0,1-1.56-4.2L194.46,9.2a2.19,2.19,0,0,1,3.29-1.41l85,49.05a3.77,3.77,0,0,1,1.55,4.2l-19.21,62.38A2.18,2.18,0,0,1,261.77,124.83Z" fill="url(#k)"></path><path d="M262.94,125.34a2.55,2.55,0,0,1-1.26-.35l-85-49.06a3.93,3.93,0,0,1-1.64-4.4L194.29,9.14a2.61,2.61,0,0,1,1.48-1.71,2.36,2.36,0,0,1,2.07.21l85,49.05a4,4,0,0,1,1.64,4.41l-19.22,62.38a2.56,2.56,0,0,1-1.48,1.71A2.22,2.22,0,0,1,262.94,125.34ZM196.58,7.64a1.9,1.9,0,0,0-.67.13,2.22,2.22,0,0,0-1.27,1.48L175.43,71.63a3.56,3.56,0,0,0,1.47,4l85,49.05a2,2,0,0,0,1.75.18,2.21,2.21,0,0,0,1.26-1.48L284.09,61a3.58,3.58,0,0,0-1.48-4l-85-49A2.16,2.16,0,0,0,196.58,7.64Z" fill="#03a7d3"></path><g opacity="0.5"><path d="M158.8,101,156,99.36c-.23-.13-.2-.36.06-.51l3.33-1.92a1,1,0,0,1,.89,0l2.82,1.63c.22.13.19.36-.07.51L159.68,101A1,1,0,0,1,158.8,101Z" fill="#380031"></path><path d="M163.16,103.51l-2.82-1.63c-.23-.13-.2-.36.06-.51l3.33-1.92a1,1,0,0,1,.88,0l2.82,1.63c.23.13.2.36-.06.51L164,103.47A1,1,0,0,1,163.16,103.51Z" fill="#380031"></path><path d="M167.51,106l-2.82-1.63c-.22-.13-.2-.36.07-.51l3.32-1.92a1,1,0,0,1,.89,0l2.82,1.63c.23.13.2.36-.06.51L168.4,106A1,1,0,0,1,167.51,106Z" fill="#380031"></path><path d="M173.54,103.94l-2.82-1.62c-.23-.13-.2-.36.06-.51l2.79-1.62a1,1,0,0,1,.89,0l2.82,1.62c.23.14.2.36-.06.51l-2.8,1.62A1,1,0,0,1,173.54,103.94Z" fill="#380031"></path><path d="M177.89,106.46l-2.82-1.63c-.22-.13-.2-.36.07-.51l2.79-1.61a1,1,0,0,1,.88,0l2.83,1.63c.22.13.19.36-.07.51l-2.79,1.61A1,1,0,0,1,177.89,106.46Z" fill="#380031"></path><path d="M182.25,109l-2.82-1.63c-.23-.13-.2-.36.06-.51l2.8-1.62a1,1,0,0,1,.88,0l2.82,1.62c.23.14.2.36-.06.51l-2.8,1.62A1,1,0,0,1,182.25,109Z" fill="#380031"></path><path d="M186.61,111.49l-2.82-1.63c-.23-.13-.2-.36.06-.51l2.79-1.61a1,1,0,0,1,.89,0l2.82,1.63c.22.13.2.36-.07.51l-2.79,1.61A1,1,0,0,1,186.61,111.49Z" fill="#380031"></path><path d="M191,114l-2.82-1.63c-.23-.13-.2-.36.06-.51l2.8-1.62a1,1,0,0,1,.88,0l2.82,1.62c.23.14.2.36-.06.51L191.85,114A1,1,0,0,1,191,114Z" fill="#380031"></path><path d="M195.32,116.52l-2.82-1.63c-.23-.13-.2-.36.06-.51l2.8-1.61a1,1,0,0,1,.88,0l2.82,1.63c.23.13.2.36-.06.51l-2.8,1.61A1,1,0,0,1,195.32,116.52Z" fill="#380031"></path><path d="M199.67,119l-2.82-1.63c-.22-.13-.19-.36.07-.51l2.79-1.62a1,1,0,0,1,.89,0l2.82,1.62c.22.14.19.36-.07.52L200.56,119A1,1,0,0,1,199.67,119Z" fill="#380031"></path><path d="M204,121.55l-2.82-1.63c-.23-.13-.2-.36.06-.51l2.8-1.61a1,1,0,0,1,.88,0l2.82,1.63c.23.13.2.36-.06.51l-2.8,1.61A1,1,0,0,1,204,121.55Z" fill="#380031"></path><path d="M208.39,124.07l-2.82-1.63c-.23-.13-.2-.36.06-.51l2.79-1.62a1,1,0,0,1,.89,0l2.82,1.63c.23.13.2.35-.06.51l-2.8,1.61A1,1,0,0,1,208.39,124.07Z" fill="#380031"></path><path d="M212.74,126.58,209.92,125c-.22-.13-.2-.36.07-.51l2.79-1.61a1,1,0,0,1,.88,0l2.83,1.63c.22.13.19.36-.07.51l-2.79,1.61A1,1,0,0,1,212.74,126.58Z" fill="#380031"></path><path d="M180,102.75l-2.82-1.62c-.23-.14-.2-.36.06-.51L180,99a1,1,0,0,1,.89,0l2.82,1.62c.22.13.2.36-.07.51l-2.79,1.62A1,1,0,0,1,180,102.75Z" fill="#380031"></path><path d="M175.53,100.2l-2.82-1.63c-.22-.13-.19-.36.07-.51l2.79-1.61a1,1,0,0,1,.89,0L179.28,98c.22.13.19.36-.07.51l-2.79,1.61A1,1,0,0,1,175.53,100.2Z" fill="#380031"></path><path d="M171.11,97.64,165,94.14c-.23-.13-.2-.36.06-.51l2.8-1.62a1,1,0,0,1,.88,0l6.08,3.5c.22.14.2.36-.07.51L172,97.61A1,1,0,0,1,171.11,97.64Z" fill="#380031"></path><path d="M174.2,94.54l-4.93-2.85c-.23-.13-.2-.36.06-.51l2.8-1.61a1,1,0,0,1,.88,0l4.93,2.84c.23.14.2.36-.06.52l-2.79,1.61A1,1,0,0,1,174.2,94.54Z" fill="#380031"></path><path d="M184.31,105.27l-2.82-1.63c-.23-.13-.2-.36.06-.51l2.8-1.61a1,1,0,0,1,.88,0l2.82,1.63c.23.13.2.36-.06.51l-2.79,1.61A1,1,0,0,1,184.31,105.27Z" fill="#380031"></path><path d="M188.67,107.78l-2.82-1.62c-.23-.14-.2-.36.06-.51l2.8-1.62a1,1,0,0,1,.88,0l2.82,1.62c.23.13.2.36-.06.51l-2.8,1.62A1,1,0,0,1,188.67,107.78Z" fill="#380031"></path><path d="M193,110.3l-2.82-1.63c-.22-.13-.19-.36.07-.51l2.79-1.61a1,1,0,0,1,.89,0l2.82,1.63c.22.13.19.36-.07.51l-2.79,1.61A1,1,0,0,1,193,110.3Z" fill="#380031"></path><path d="M197.38,112.81l-2.82-1.62c-.23-.13-.2-.36.06-.51l2.8-1.62a1,1,0,0,1,.88,0l2.82,1.62c.23.13.2.36-.06.51l-2.8,1.62A1,1,0,0,1,197.38,112.81Z" fill="#380031"></path><path d="M201.74,115.33l-2.82-1.63c-.23-.13-.2-.36.06-.51l2.79-1.61a1,1,0,0,1,.89,0l2.82,1.63c.23.13.2.36-.06.51l-2.8,1.61A1,1,0,0,1,201.74,115.33Z" fill="#380031"></path><path d="M206.09,117.84l-2.82-1.62c-.22-.13-.2-.36.07-.51l2.79-1.62a1,1,0,0,1,.88,0l2.83,1.62c.22.13.19.36-.07.51L207,117.81A1,1,0,0,1,206.09,117.84Z" fill="#380031"></path><path d="M210.45,120.36l-2.82-1.63c-.23-.13-.2-.36.06-.51l2.8-1.61a1,1,0,0,1,.88,0l2.82,1.63c.23.13.2.36-.06.51l-2.8,1.61A1,1,0,0,1,210.45,120.36Z" fill="#380031"></path><path d="M214.81,122.87,212,121.25c-.22-.13-.19-.36.07-.51l2.79-1.62a1,1,0,0,1,.89,0l2.82,1.62c.22.14.2.36-.07.51l-2.79,1.62A1,1,0,0,1,214.81,122.87Z" fill="#380031"></path><path d="M219.16,125.39l-2.82-1.63c-.23-.13-.2-.36.06-.51l2.8-1.61a1,1,0,0,1,.88,0l2.82,1.63c.23.13.2.36-.06.51l-2.79,1.61A1,1,0,0,1,219.16,125.39Z" fill="#380031"></path><path d="M226.91,129.86l-6.16-3.55c-.22-.13-.2-.36.07-.51l2.79-1.62a1,1,0,0,1,.88,0l6.16,3.55c.22.13.2.36-.06.51l-2.8,1.61A1,1,0,0,1,226.91,129.86Z" fill="#380031"></path><path d="M235.39,125l-5.2-3c-.22-.14-.2-.36.07-.51l2.79-1.62a1,1,0,0,1,.88,0l5.2,3c.23.13.2.36-.06.51l-2.8,1.62A1,1,0,0,1,235.39,125Z" fill="#380031"></path><path d="M191.94,104.78l-2.82-1.63c-.23-.13-.2-.36.06-.51L192,101a1,1,0,0,1,.88,0l2.82,1.63c.23.13.2.36-.06.51l-2.8,1.61A1,1,0,0,1,191.94,104.78Z" fill="#380031"></path><path d="M187.48,102.2l-2.82-1.63c-.23-.13-.2-.36.06-.51l2.79-1.61a1,1,0,0,1,.89,0l2.82,1.63c.22.13.2.36-.07.51l-2.79,1.61A1,1,0,0,1,187.48,102.2Z" fill="#380031"></path><path d="M183,99.62,180.19,98c-.23-.13-.2-.36.06-.51l2.8-1.61a1,1,0,0,1,.88,0l2.82,1.63c.23.13.2.36-.06.51l-2.79,1.62A1,1,0,0,1,183,99.62Z" fill="#380031"></path><path d="M178.55,97l-2.82-1.62c-.23-.14-.2-.36.06-.51l2.79-1.62a1,1,0,0,1,.89,0l2.82,1.62c.23.13.2.36-.06.51L179.43,97A1,1,0,0,1,178.55,97Z" fill="#380031"></path><path d="M196.3,107.29l-2.82-1.63c-.23-.13-.2-.36.06-.51l2.79-1.61a1,1,0,0,1,.89,0l2.82,1.63c.23.13.2.36-.06.51l-2.8,1.62A1,1,0,0,1,196.3,107.29Z" fill="#380031"></path><path d="M200.65,109.81l-2.82-1.63c-.22-.13-.2-.36.07-.51l2.79-1.62a1,1,0,0,1,.88,0l2.83,1.63c.22.13.19.36-.07.51l-2.79,1.61A1,1,0,0,1,200.65,109.81Z" fill="#380031"></path><path d="M205,112.32l-2.82-1.63c-.23-.13-.2-.36.06-.51l2.8-1.61a1,1,0,0,1,.88,0l2.82,1.63c.23.13.2.36-.06.51l-2.8,1.62A1,1,0,0,1,205,112.32Z" fill="#380031"></path><path d="M209.37,114.84l-2.83-1.63c-.22-.13-.19-.36.07-.51l2.79-1.62a1,1,0,0,1,.89,0l2.82,1.63c.22.13.2.36-.07.51l-2.79,1.61A1,1,0,0,1,209.37,114.84Z" fill="#380031"></path><path d="M213.72,117.35l-2.82-1.63c-.23-.13-.2-.36.06-.51l2.8-1.61a1,1,0,0,1,.88,0l2.82,1.63c.23.13.2.36-.06.51l-2.79,1.62A1,1,0,0,1,213.72,117.35Z" fill="#380031"></path><path d="M218.08,119.87l-2.82-1.63c-.23-.13-.2-.36.06-.51l2.8-1.61a1,1,0,0,1,.88,0l2.82,1.63c.23.13.2.36-.06.51l-2.8,1.61A1,1,0,0,1,218.08,119.87Z" fill="#380031"></path><path d="M222.43,122.38l-2.82-1.63c-.22-.13-.19-.36.07-.51l2.79-1.61a1,1,0,0,1,.89,0l2.82,1.63c.22.13.19.36-.07.51l-2.79,1.62A1,1,0,0,1,222.43,122.38Z" fill="#380031"></path><path d="M226.79,124.9,224,123.27c-.23-.13-.2-.36.06-.51l2.8-1.61a1,1,0,0,1,.88,0l2.82,1.63c.23.13.2.36-.06.51l-2.8,1.61A1,1,0,0,1,226.79,124.9Z" fill="#380031"></path><path d="M231.15,127.41l-2.82-1.63c-.23-.13-.2-.35.06-.51l2.79-1.61a1,1,0,0,1,.89,0l2.82,1.63c.23.13.2.36-.06.51l-2.8,1.62A1,1,0,0,1,231.15,127.41Z" fill="#380031"></path><path d="M189.65,98.56l-2.82-1.63c-.23-.13-.2-.36.06-.51l2.79-1.62a1,1,0,0,1,.89,0l2.82,1.63c.23.13.2.36-.06.51l-2.8,1.61A1,1,0,0,1,189.65,98.56Z" fill="#380031"></path><path d="M185.31,96.05l-2.82-1.62c-.22-.14-.2-.36.07-.52l2.79-1.61a1,1,0,0,1,.88,0l2.82,1.63c.23.13.2.36-.06.51L186.2,96A1,1,0,0,1,185.31,96.05Z" fill="#380031"></path><path d="M181,93.55l-2.82-1.63c-.23-.13-.2-.36.06-.51L181,89.8a1,1,0,0,1,.88,0l2.82,1.63c.23.13.2.36-.06.51l-2.8,1.61A1,1,0,0,1,181,93.55Z" fill="#380031"></path><path d="M176.64,91.05l-2.82-1.63c-.22-.13-.2-.36.07-.51l2.79-1.61a1,1,0,0,1,.88,0l2.83,1.63c.22.13.19.36-.07.51L177.53,91A1,1,0,0,1,176.64,91.05Z" fill="#380031"></path><path d="M181.1,88.48l-2.82-1.63c-.23-.13-.2-.36.06-.51l.93-.54a1,1,0,0,1,.88,0L183,87.4c.23.13.2.35-.06.51l-.93.53A1,1,0,0,1,181.1,88.48Z" fill="#380031"></path><path d="M186.76,91.74l-2.82-1.63c-.23-.13-.2-.36.06-.51l.92-.53a1,1,0,0,1,.89,0l2.82,1.63c.22.13.2.36-.07.51l-.92.53A1,1,0,0,1,186.76,91.74Z" fill="#380031"></path><path d="M191.07,94.23l-2.82-1.63c-.22-.13-.2-.35.07-.51l.92-.53a1,1,0,0,1,.88,0l2.82,1.63c.23.13.2.36-.06.51l-.92.54A1,1,0,0,1,191.07,94.23Z" fill="#380031"></path><path d="M195.39,96.73l-2.82-1.63c-.23-.13-.2-.36.06-.51l.93-.54a1,1,0,0,1,.88,0l2.82,1.63c.23.13.2.35-.06.51l-.93.53A1,1,0,0,1,195.39,96.73Z" fill="#380031"></path><path d="M199.71,99.22l-2.82-1.63c-.23-.13-.2-.36.06-.51l.92-.53a1,1,0,0,1,.89,0l2.82,1.63c.22.13.2.36-.07.51l-.92.53A1,1,0,0,1,199.71,99.22Z" fill="#380031"></path><path d="M223.81,113.13,221,111.5c-.22-.13-.19-.36.07-.51l.92-.53a1,1,0,0,1,.89,0l2.82,1.63c.22.13.19.36-.07.51l-.92.53A1,1,0,0,1,223.81,113.13Z" fill="#380031"></path><path d="M228.12,115.62,225.3,114c-.23-.13-.2-.36.06-.51l.93-.53a1,1,0,0,1,.88,0l2.82,1.63c.23.13.2.36-.06.51l-.92.54A1,1,0,0,1,228.12,115.62Z" fill="#380031"></path><path d="M232.44,118.11l-2.82-1.62c-.23-.13-.2-.36.06-.51l.92-.54a1,1,0,0,1,.89,0l2.82,1.62c.23.14.2.36-.06.51l-.93.54A1,1,0,0,1,232.44,118.11Z" fill="#380031"></path><path d="M236.75,120.61,233.93,119c-.22-.13-.19-.36.07-.51l.92-.54a1,1,0,0,1,.88,0l2.83,1.63c.22.13.19.36-.07.51l-.92.53A1,1,0,0,1,236.75,120.61Z" fill="#380031"></path><path d="M194,101.07l-2.82-1.63c-.22-.13-.2-.36.07-.51L194,97.32a1,1,0,0,1,.88,0l2.83,1.63c.22.13.19.36-.07.51L194.89,101A1,1,0,0,1,194,101.07Z" fill="#380031"></path><path d="M198.36,103.59,195.54,102c-.23-.13-.2-.36.06-.51l2.8-1.62a1,1,0,0,1,.88,0l2.82,1.63c.23.13.2.36-.06.51l-2.8,1.61A1,1,0,0,1,198.36,103.59Z" fill="#380031"></path><path d="M202.72,106.1l-2.83-1.63c-.22-.13-.19-.36.07-.51l2.79-1.61a1,1,0,0,1,.89,0l2.82,1.63c.22.13.2.36-.07.51l-2.79,1.61A1,1,0,0,1,202.72,106.1Z" fill="#380031"></path><path d="M207.07,108.62,204.25,107c-.23-.13-.2-.36.06-.51l2.8-1.62a1,1,0,0,1,.88,0l2.82,1.63c.23.13.2.36-.06.51L208,108.58A1,1,0,0,1,207.07,108.62Z" fill="#380031"></path><path d="M211.43,111.13l-2.82-1.63c-.23-.13-.2-.36.06-.51l2.8-1.61a1,1,0,0,1,.88,0l2.82,1.63c.23.13.2.36-.06.51l-2.8,1.62A1,1,0,0,1,211.43,111.13Z" fill="#380031"></path><path d="M215.78,113.65,213,112c-.22-.13-.19-.36.07-.51l2.79-1.62a1,1,0,0,1,.89,0l2.82,1.63c.22.13.19.36-.07.51l-2.79,1.61A1,1,0,0,1,215.78,113.65Z" fill="#380031"></path><path d="M220.14,116.16l-2.82-1.63c-.23-.13-.2-.36.06-.51l2.8-1.61a1,1,0,0,1,.88,0l2.82,1.63c.23.13.2.36-.06.51l-2.8,1.62A1,1,0,0,1,220.14,116.16Z" fill="#380031"></path><path d="M224.5,118.68l-2.82-1.63c-.23-.13-.2-.36.06-.51l2.79-1.62a1,1,0,0,1,.89,0l2.82,1.63c.23.13.2.36-.06.51l-2.8,1.61A1,1,0,0,1,224.5,118.68Z" fill="#380031"></path><path d="M228.85,121.19,226,119.56c-.22-.13-.2-.36.07-.51l2.79-1.61a1,1,0,0,1,.88,0L232.6,119c.22.13.19.36-.07.51l-2.79,1.62A1,1,0,0,1,228.85,121.19Z" fill="#380031"></path><path d="M169.1,101.38l-8.31-4.79c-.23-.14-.2-.36.06-.51l2.8-1.62a1,1,0,0,1,.88,0l8.31,4.8c.23.13.2.36-.06.51l-2.8,1.62A1,1,0,0,1,169.1,101.38Z" fill="#380031"></path><path d="M222.62,132.28l-8.31-4.8c-.23-.13-.2-.36.06-.51l2.8-1.61a1,1,0,0,1,.88,0l8.31,4.8c.22.13.2.36-.07.51l-2.79,1.61A1,1,0,0,1,222.62,132.28Z" fill="#380031"></path><path d="M205.19,127.78l-2.82-1.63c-.22-.13-.19-.36.07-.51l3.33-1.92a1,1,0,0,1,.88,0l2.82,1.63c.23.13.2.36-.06.51l-3.33,1.92A1,1,0,0,1,205.19,127.78Z" fill="#380031"></path><path d="M173.56,109.51l-4.51-2.6c-.23-.13-.2-.36.06-.51l3.33-1.92a1,1,0,0,1,.88,0l4.52,2.6c.22.13.19.36-.07.51l-3.33,1.93A1,1,0,0,1,173.56,109.51Z" fill="#380031"></path><path d="M201,125.35l-4.51-2.6c-.23-.13-.2-.36.06-.51l3.33-1.92a1,1,0,0,1,.88,0l4.51,2.61c.23.13.2.35-.06.51l-3.33,1.92A1,1,0,0,1,201,125.35Z" fill="#380031"></path><path d="M179.84,113.14l-4.51-2.6c-.22-.13-.2-.36.07-.51l3.33-1.93a1,1,0,0,1,.88,0l4.51,2.6c.23.13.2.36-.06.51l-3.33,1.93A1,1,0,0,1,179.84,113.14Z" fill="#380031"></path><path d="M179.64,108.09l19.61,11.32c.25.14.25.37,0,.51l-3.39,2a1,1,0,0,1-.88,0l-19.62-11.33Z" fill="#380031"></path><path d="M217.37,132.34l3.14,1.81c.19.11.16.3,0,.42l-1.36.79a.85.85,0,0,1-.73,0l-3.14-1.82c-.18-.11-.16-.29.05-.42l1.36-.78A.79.79,0,0,1,217.37,132.34Z" fill="#380031"></path><path d="M213,129.8l3.14,1.82c.18.1.16.29-.05.41l-1.37.79a.8.8,0,0,1-.72,0L210.84,131c-.19-.11-.16-.3,0-.42l1.36-.79A.82.82,0,0,1,213,129.8Z" fill="#380031"></path><path d="M208.62,127.29l3.14,1.81c.19.11.17.3,0,.42l-1.36.79a.85.85,0,0,1-.73,0l-3.14-1.82c-.18-.11-.16-.29.05-.42l1.37-.78A.77.77,0,0,1,208.62,127.29Z" fill="#380031"></path><path d="M215.38,128.41l3.14,1.82c.19.1.17.29-.05.42l-1.36.78a.77.77,0,0,1-.72,0l-3.15-1.81c-.18-.11-.16-.3.06-.42l1.36-.79A.83.83,0,0,1,215.38,128.41Z" fill="#380031"></path></g><path d="M180.06,137a4.13,4.13,0,0,1-2-.47l-21.89-12.64a1.55,1.55,0,0,1-.88-1.31,2,2,0,0,1,1.19-1.63l11.27-6.5a5,5,0,0,1,4.55-.18l21.89,12.64a1.54,1.54,0,0,1,.88,1.3,2,2,0,0,1-1.19,1.63l-11.27,6.51A5.17,5.17,0,0,1,180.06,137Zm-1.73-.93a4.48,4.48,0,0,0,4-.18l11.27-6.51a1.53,1.53,0,0,0,.92-1.17,1.07,1.07,0,0,0-.61-.84L172,114.75a4.48,4.48,0,0,0-4,.18l-11.27,6.5a1.54,1.54,0,0,0-.91,1.17,1.06,1.06,0,0,0,.6.85Z" fill="#380031" opacity="0.5"></path><path d="M206.57,31.6l-2.48-1.44a.64.64,0,0,1-.28-.71h0a.37.37,0,0,1,.56-.23l2.49,1.43a.64.64,0,0,1,.27.72h0A.37.37,0,0,1,206.57,31.6Z" fill="#fff"></path><path d="M212.49,35l-3.66-2.12a.64.64,0,0,1-.28-.71h0a.37.37,0,0,1,.56-.24l3.67,2.12a.64.64,0,0,1,.27.71h0A.37.37,0,0,1,212.49,35Z" fill="#fff"></path><path d="M201.56,42.66l-2.48-1.43a.64.64,0,0,1-.28-.72h0a.37.37,0,0,1,.56-.23l2.48,1.44a.64.64,0,0,1,.28.71h0A.37.37,0,0,1,201.56,42.66Z" fill="#fff"></path><path d="M206.84,45.71l-3.67-2.12a.64.64,0,0,1-.27-.71h0a.36.36,0,0,1,.56-.23l3.66,2.11a.68.68,0,0,1,.28.72h0A.37.37,0,0,1,206.84,45.71Z" fill="#fff"></path><path d="M199.13,29.63l-1.55-.9a.63.63,0,0,1-.28-.71h0a.37.37,0,0,1,.56-.24l1.55.9a.66.66,0,0,1,.28.71h0A.37.37,0,0,1,199.13,29.63Z" fill="#fff"></path><path d="M203.8,34.65l-4.74-2.74a.64.64,0,0,1-.28-.71h0a.37.37,0,0,1,.56-.24l4.74,2.74a.66.66,0,0,1,.28.72h0A.37.37,0,0,1,203.8,34.65Z" fill="#fff"></path><path d="M199.42,36.78l-1.55-.9a.64.64,0,0,1-.27-.71h0a.36.36,0,0,1,.55-.24l1.56.9a.64.64,0,0,1,.27.71h0A.37.37,0,0,1,199.42,36.78Z" fill="#fff"></path><path d="M207.41,50.69l-4.15-2.39a.64.64,0,0,1-.27-.72h0a.37.37,0,0,1,.56-.23l4.14,2.4a.64.64,0,0,1,.28.71h0A.37.37,0,0,1,207.41,50.69Z" fill="#fff"></path><path d="M197.68,40.43l-1-.58a.64.64,0,0,1-.28-.71h0a.37.37,0,0,1,.56-.24l1,.58a.64.64,0,0,1,.27.71h0A.37.37,0,0,1,197.68,40.43Z" fill="#fff"></path><path d="M196.74,44.53l-1.24-.71a.64.64,0,0,1-.27-.72h0a.37.37,0,0,1,.56-.23l1.23.72a.64.64,0,0,1,.28.71h0A.37.37,0,0,1,196.74,44.53Z" fill="#fff"></path><path d="M201.56,47.31l-3.27-1.88a.64.64,0,0,1-.27-.71h0a.37.37,0,0,1,.56-.24l3.26,1.89a.64.64,0,0,1,.27.71h0A.36.36,0,0,1,201.56,47.31Z" fill="#fff"></path><path d="M197.26,47.16l-2.35-1.36a.64.64,0,0,1-.27-.71h0a.36.36,0,0,1,.55-.23l2.35,1.35a.66.66,0,0,1,.28.72h0A.37.37,0,0,1,197.26,47.16Z" fill="#fff"></path><path d="M211,52.76l-1.51-.87a.68.68,0,0,1-.28-.72h0a.37.37,0,0,1,.56-.23l1.51.87a.66.66,0,0,1,.28.72h0A.37.37,0,0,1,211,52.76Z" fill="#fff"></path><path d="M205.2,40.11l-4.15-2.39a.66.66,0,0,1-.27-.72h0a.37.37,0,0,1,.56-.23l4.14,2.39a.66.66,0,0,1,.28.72h0A.37.37,0,0,1,205.2,40.11Z" fill="#fff"></path><path d="M205.69,38.07l-7.23-4.17a.66.66,0,0,1-.27-.72h0a.37.37,0,0,1,.56-.23L206,37.12a.65.65,0,0,1,.28.72h0A.37.37,0,0,1,205.69,38.07Z" fill="#fff"></path><path d="M201.43,40.26l-4.15-2.39a.68.68,0,0,1-.28-.72h0a.37.37,0,0,1,.56-.23l4.15,2.39A.68.68,0,0,1,202,40h0A.37.37,0,0,1,201.43,40.26Z" fill="#fff"></path><path d="M208.34,41.93l-1.5-.87a.66.66,0,0,1-.28-.72h0a.37.37,0,0,1,.56-.23l1.51.87a.64.64,0,0,1,.27.72h0A.37.37,0,0,1,208.34,41.93Z" fill="#fff"></path><path d="M220.06,39.37l-5.31-3a.65.65,0,0,1-.28-.72h0a.37.37,0,0,1,.56-.23l5.31,3.05a.66.66,0,0,1,.28.72h0A.37.37,0,0,1,220.06,39.37Z" fill="#fff"></path><path d="M201.08,44.71l-5-2.88a.63.63,0,0,1-.28-.71h0a.37.37,0,0,1,.56-.23l5,2.88a.64.64,0,0,1,.28.71h0A.37.37,0,0,1,201.08,44.71Z" fill="#fff"></path><path d="M201.83,28.86l-3.66-2.11a.66.66,0,0,1-.28-.72h0a.37.37,0,0,1,.56-.23l3.66,2.11a.65.65,0,0,1,.28.72h0A.37.37,0,0,1,201.83,28.86Z" fill="#fff"></path><path d="M196.49,49l-4.24-2.45a.64.64,0,0,1-.28-.71h0a.37.37,0,0,1,.56-.24l4.24,2.46a.64.64,0,0,1,.28.71h0A.37.37,0,0,1,196.49,49Z" fill="#fff"></path><path d="M200.07,53.59l-2.48-1.44a.64.64,0,0,1-.28-.71h0a.37.37,0,0,1,.56-.24l2.49,1.44a.64.64,0,0,1,.27.71h0A.37.37,0,0,1,200.07,53.59Z" fill="#fff"></path><path d="M206,57l-3.66-2.12a.65.65,0,0,1-.28-.72h0a.37.37,0,0,1,.56-.23l3.67,2.12a.64.64,0,0,1,.27.71h0A.37.37,0,0,1,206,57Z" fill="#fff"></path><path d="M195.06,64.65l-2.48-1.43a.65.65,0,0,1-.28-.72h0a.37.37,0,0,1,.56-.23l2.48,1.43a.66.66,0,0,1,.28.72h0A.37.37,0,0,1,195.06,64.65Z" fill="#fff"></path><path d="M200.34,67.7l-3.67-2.12a.64.64,0,0,1-.27-.71h0a.37.37,0,0,1,.56-.23l3.66,2.11a.66.66,0,0,1,.28.72h0A.37.37,0,0,1,200.34,67.7Z" fill="#fff"></path><path d="M192.63,51.62l-1.55-.9a.64.64,0,0,1-.28-.72h0a.37.37,0,0,1,.56-.23l1.55.9a.66.66,0,0,1,.28.71h0A.37.37,0,0,1,192.63,51.62Z" fill="#fff"></path><path d="M197.3,56.64l-4.74-2.74a.64.64,0,0,1-.28-.71h0a.37.37,0,0,1,.56-.24l4.74,2.74a.65.65,0,0,1,.28.72h0A.37.37,0,0,1,197.3,56.64Z" fill="#fff"></path><path d="M192.92,58.77l-1.55-.9a.64.64,0,0,1-.27-.72h0a.36.36,0,0,1,.55-.23l1.56.9a.64.64,0,0,1,.27.71h0A.37.37,0,0,1,192.92,58.77Z" fill="#fff"></path><path d="M200.91,72.68l-4.15-2.39a.66.66,0,0,1-.27-.72h0a.37.37,0,0,1,.56-.23l4.14,2.39a.66.66,0,0,1,.28.72h0A.37.37,0,0,1,200.91,72.68Z" fill="#fff"></path><path d="M191.18,62.41l-1-.57a.65.65,0,0,1-.28-.72h0a.37.37,0,0,1,.56-.23l1,.58a.64.64,0,0,1,.27.71h0A.36.36,0,0,1,191.18,62.41Z" fill="#fff"></path><path d="M190.24,66.52,189,65.81a.66.66,0,0,1-.27-.72h0a.37.37,0,0,1,.56-.23l1.23.72a.64.64,0,0,1,.28.71h0A.37.37,0,0,1,190.24,66.52Z" fill="#fff"></path><path d="M195.06,69.3l-3.27-1.88a.64.64,0,0,1-.27-.72h0a.37.37,0,0,1,.56-.23l3.26,1.89a.64.64,0,0,1,.27.71h0A.36.36,0,0,1,195.06,69.3Z" fill="#fff"></path><path d="M190.76,69.15l-2.35-1.36a.64.64,0,0,1-.27-.71h0a.36.36,0,0,1,.55-.23L191,68.2a.66.66,0,0,1,.28.71h0A.37.37,0,0,1,190.76,69.15Z" fill="#fff"></path><path d="M204.47,74.75,203,73.88a.68.68,0,0,1-.28-.72h0a.37.37,0,0,1,.56-.23l1.51.87a.66.66,0,0,1,.28.71h0A.37.37,0,0,1,204.47,74.75Z" fill="#fff"></path><path d="M198.7,62.1l-4.15-2.39a.66.66,0,0,1-.27-.72h0a.37.37,0,0,1,.56-.23L199,61.15a.66.66,0,0,1,.28.72h0A.37.37,0,0,1,198.7,62.1Z" fill="#fff"></path><path d="M199.19,60.06,192,55.88a.64.64,0,0,1-.27-.71h0a.37.37,0,0,1,.56-.23l7.22,4.17a.64.64,0,0,1,.28.71h0A.37.37,0,0,1,199.19,60.06Z" fill="#fff"></path><path d="M194.93,62.25l-4.15-2.4a.66.66,0,0,1-.28-.71h0a.37.37,0,0,1,.56-.23l4.15,2.39a.66.66,0,0,1,.28.72h0A.37.37,0,0,1,194.93,62.25Z" fill="#fff"></path><path d="M201.85,63.92l-1.51-.87a.66.66,0,0,1-.28-.72h0a.37.37,0,0,1,.56-.23l1.51.87a.64.64,0,0,1,.27.71h0A.36.36,0,0,1,201.85,63.92Z" fill="#fff"></path><path d="M194.58,66.7l-5-2.88a.64.64,0,0,1-.28-.71h0a.37.37,0,0,1,.56-.23l5,2.87a.66.66,0,0,1,.28.72h0A.37.37,0,0,1,194.58,66.7Z" fill="#fff"></path><path d="M195.33,50.85l-3.66-2.12a.64.64,0,0,1-.28-.71h0a.37.37,0,0,1,.56-.23l3.66,2.11a.65.65,0,0,1,.28.72h0A.37.37,0,0,1,195.33,50.85Z" fill="#fff"></path><path d="M190,71l-4.24-2.45a.64.64,0,0,1-.28-.71h0a.37.37,0,0,1,.56-.24l4.24,2.45a.66.66,0,0,1,.28.72h0A.37.37,0,0,1,190,71Z" fill="#fff"></path><path d="M257.67,109.78a3.09,3.09,0,0,1-1.55-.44l-39.87-23a4.79,4.79,0,0,1-2-5.31L225.42,44.3a3,3,0,0,1,1.75-2,2.88,2.88,0,0,1,2.52.26l39.88,23a4.79,4.79,0,0,1,2,5.31l-11.21,36.7a3,3,0,0,1-1.74,2A2.59,2.59,0,0,1,257.67,109.78ZM256.3,109a2.47,2.47,0,0,0,2.21.23,2.65,2.65,0,0,0,1.54-1.78l11.2-36.71a4.41,4.41,0,0,0-1.87-4.89l-39.87-23a2.54,2.54,0,0,0-2.21-.23,2.67,2.67,0,0,0-1.54,1.78l-11.2,36.71a4.43,4.43,0,0,0,1.87,4.9Z" fill="#fff"></path><path d="M263.86,78.25a2.16,2.16,0,0,1-1.1-.31L227.88,57.81a3.37,3.37,0,0,1-1.42-3.72l1.43-4.68A2.13,2.13,0,0,1,229.12,48a2,2,0,0,1,1.79.17L265.79,68.3A3.34,3.34,0,0,1,267.21,72l-1.42,4.68a2.14,2.14,0,0,1-1.24,1.42A1.84,1.84,0,0,1,263.86,78.25Zm-34-30a1.5,1.5,0,0,0-.56.1,1.78,1.78,0,0,0-1,1.2l-1.43,4.67a3,3,0,0,0,1.26,3.3l34.87,20.14a1.71,1.71,0,0,0,1.48.15,1.79,1.79,0,0,0,1-1.19l1.43-4.67a3,3,0,0,0-1.26-3.3L230.73,48.48A1.85,1.85,0,0,0,229.82,48.22Z" fill="#fff"></path><path d="M259,90.46l-6.54-3.77a3.17,3.17,0,0,1-1.34-3.51l1.43-4.68a1.83,1.83,0,0,1,2.76-1.14l6.54,3.78a3.16,3.16,0,0,1,1.34,3.51l-1.43,4.67A1.81,1.81,0,0,1,259,90.46Z" fill="#fff"></path><path d="M256.12,103.61a2.16,2.16,0,0,1-1.1-.31l-6.54-3.77a3.37,3.37,0,0,1-1.42-3.72l1.43-4.68a2.11,2.11,0,0,1,1.23-1.42,2,2,0,0,1,1.79.17l6.54,3.78a3.34,3.34,0,0,1,1.42,3.72l-1.42,4.67a2.14,2.14,0,0,1-1.24,1.43A1.8,1.8,0,0,1,256.12,103.61Zm-5.7-13.67a1.5,1.5,0,0,0-.56.1,1.76,1.76,0,0,0-1,1.2l-1.43,4.67a3,3,0,0,0,1.26,3.3L255.2,103a1.71,1.71,0,0,0,1.48.15,1.79,1.79,0,0,0,1-1.19l1.43-4.68a3,3,0,0,0-1.26-3.3l-6.54-3.77A1.85,1.85,0,0,0,250.42,89.94Z" fill="#fff"></path><path d="M240.86,95.28a2.16,2.16,0,0,1-1.1-.31L220,83.57a3.34,3.34,0,0,1-1.42-3.72L224,62.09a2.13,2.13,0,0,1,1.23-1.42,2,2,0,0,1,1.79.17l19.74,11.4A3.36,3.36,0,0,1,248.21,76l-5.43,17.76a2.1,2.1,0,0,1-1.23,1.43A1.84,1.84,0,0,1,240.86,95.28Zm-.92-.62a1.7,1.7,0,0,0,1.48.15,1.79,1.79,0,0,0,1-1.19l5.42-17.77a3,3,0,0,0-1.26-3.29l-19.74-11.4a1.69,1.69,0,0,0-1.47-.16,1.78,1.78,0,0,0-1,1.2L218.94,80a3,3,0,0,0,1.26,3.3Z" fill="#fff"></path><path d="M268.17,57.93a1.28,1.28,0,0,1-.65-.18,1.39,1.39,0,0,1-.64-1.71,1,1,0,0,1,.63-.57,1.23,1.23,0,0,1,1,.12,1.4,1.4,0,0,1,.64,1.71h0a1,1,0,0,1-.63.57A1,1,0,0,1,268.17,57.93Zm-.31-2.15a1,1,0,0,0-.24,0,.7.7,0,0,0-.41.38,1,1,0,0,0,.49,1.25.88.88,0,0,0,.7.09.69.69,0,0,0,.42-.38h0a1,1,0,0,0-.49-1.24A.9.9,0,0,0,267.86,55.78Z" fill="#fff"></path><path d="M271,59.58a1.27,1.27,0,0,1-.64-.18,1.39,1.39,0,0,1-.64-1.71,1,1,0,0,1,.63-.58,1.27,1.27,0,0,1,1,.12,1.41,1.41,0,0,1,.64,1.71h0a1,1,0,0,1-.63.58A1.09,1.09,0,0,1,271,59.58Zm-.3-2.16a.7.7,0,0,0-.65.42,1,1,0,0,0,.49,1.24.88.88,0,0,0,.7.1.72.72,0,0,0,.42-.38h0a1,1,0,0,0-.49-1.25A1,1,0,0,0,270.74,57.42Z" fill="#fff"></path><path d="M274.74,60.52a.94.94,0,0,1-1.37.37,1.22,1.22,0,0,1-.57-1.48.94.94,0,0,1,1.38-.37A1.21,1.21,0,0,1,274.74,60.52Z" fill="#fff"></path><polygon points="227.36 73.41 225.18 72.16 222.45 81.09 224.63 82.35 227.36 73.41" fill="#fff"></polygon><polygon points="231.54 78.01 229.36 76.75 227.2 83.83 229.38 85.08 231.54 78.01" fill="#fff"></polygon><polygon points="237.73 76.02 235.55 74.76 231.95 86.56 234.13 87.82 237.73 76.02" fill="#fff"></polygon><polygon points="243.9 74.1 241.72 72.84 236.7 89.3 238.88 90.56 243.9 74.1" fill="#fff"></polygon><path d="M185.78,251.13a9.46,9.46,0,0,1-4.61-1.1l-31-17.89a3,3,0,0,1,0-5.66L204,195.4a10.19,10.19,0,0,1,9.22,0l31,17.89a3,3,0,0,1,0,5.66L190.39,250A9.46,9.46,0,0,1,185.78,251.13Zm22.84-56.27a8.85,8.85,0,0,0-4.32,1L150.47,227a2.44,2.44,0,0,0,0,4.66l31,17.89a9.53,9.53,0,0,0,8.64,0l53.84-31.08a2.44,2.44,0,0,0,0-4.66L213,195.9A8.86,8.86,0,0,0,208.62,194.86Z" fill="#1f89c9"></path><path d="M246.09,206.34h0V191.48L227.3,194l-14.06-8.11a9.83,9.83,0,0,0-8.93,0l-25.19,14.54-30.49,4.07v15.13h0a3.16,3.16,0,0,0,1.84,2.49l31,17.9a9.89,9.89,0,0,0,8.93,0l53.84-31.08a3.18,3.18,0,0,0,1.83-2.49h0Z" fill="url(#l)"></path><path d="M244.24,188.79l-31-17.9a9.89,9.89,0,0,0-8.93,0L150.48,202c-2.47,1.42-2.47,3.73,0,5.15l31,17.9a9.89,9.89,0,0,0,8.93,0l53.84-31.09C246.7,192.52,246.7,190.21,244.24,188.79Z" fill="url(#m)"></path><path d="M244.24,193,190.4,224.13a9.89,9.89,0,0,1-8.93,0l-31-17.9a3.4,3.4,0,0,1-1.8-2.13c-.23,1.08.36,2.21,1.8,3l31,17.9a9.89,9.89,0,0,0,8.93,0l53.84-31.09c1.43-.82,2-1.95,1.79-3A3.39,3.39,0,0,1,244.24,193Z" fill="#fff"></path><polygon points="208.56 220.68 207.09 221.53 207.09 219.83 208.56 218.99 208.56 220.68" fill="#fff"></polygon><polygon points="211.63 218.91 210.16 219.76 210.16 218.06 211.63 217.21 211.63 218.91" fill="#fff"></polygon><polygon points="214.7 217.14 213.23 217.98 213.23 216.29 214.7 215.44 214.7 217.14" fill="#fff"></polygon><polygon points="212.19 222.02 210.72 222.87 210.72 221.17 212.19 220.32 212.19 222.02" fill="#fff"></polygon><polygon points="214.9 220.46 213.43 221.31 213.43 219.61 214.9 218.76 214.9 220.46" fill="#fff"></polygon><polygon points="224.55 211.45 223.08 212.3 223.08 210.6 224.55 209.76 224.55 211.45" fill="#fff"></polygon><polygon points="233 206.57 231.54 207.42 231.54 205.72 233 204.88 233 206.57" fill="#fff"></polygon><polygon points="217.77 215.36 216.3 216.21 216.3 214.52 217.77 213.67 217.77 215.36" fill="#fff"></polygon><polygon points="196.95 184.76 218.85 197.37 216.83 198.54 194.93 185.93 196.95 184.76" fill="#11203c"></polygon><polygon points="195.69 186.36 197.07 185.57 218.21 197.74 218.85 197.37 196.95 184.76 194.93 185.93 195.69 186.36" fill="#fff"></polygon><polygon points="203.08 181.21 224.98 193.82 222.96 194.99 201.07 182.38 203.08 181.21" fill="#11203c"></polygon><polygon points="201.83 182.81 203.2 182.02 224.34 194.19 224.98 193.82 203.09 181.21 201.07 182.38 201.83 182.81" fill="#fff"></polygon><polygon points="209.22 177.66 231.12 190.27 229.1 191.44 207.2 178.83 209.22 177.66" fill="#11203c"></polygon><polygon points="207.96 179.26 209.34 178.47 230.47 190.64 231.12 190.27 209.22 177.66 207.2 178.83 207.96 179.26" fill="#fff"></polygon><path d="M185.54,218.07a3.18,3.18,0,0,1-1.58-.37l-20.85-12a1.26,1.26,0,0,1-.71-1.07,1.64,1.64,0,0,1,.95-1.32l20.37-11.76a3.92,3.92,0,0,1,3.58-.14l20.86,12a1.26,1.26,0,0,1,.71,1.07,1.61,1.61,0,0,1-1,1.31l-20.38,11.77A4.15,4.15,0,0,1,185.54,218.07Zm-1.3-.84a3.39,3.39,0,0,0,3-.14l20.38-11.76a1.13,1.13,0,0,0,.67-.84.75.75,0,0,0-.44-.6l-20.85-12a3.46,3.46,0,0,0-3,.14l-20.38,11.77c-.43.24-.67.55-.67.84a.73.73,0,0,0,.43.59Z" fill="#11203c"></path><path d="M175.9,230.5l-17.21-9.94a1.77,1.77,0,0,1-.75-1.42v-1.27c0-.55.34-.8.75-.57l17.21,9.94a1.78,1.78,0,0,1,.74,1.42v1.28C176.64,230.48,176.31,230.74,175.9,230.5Z" fill="#11203c"></path><path d="M37.69,166.31A9.41,9.41,0,0,1,33,165.19L2,147.3a3.1,3.1,0,0,1,0-5.82L55.88,110.4a10.25,10.25,0,0,1,9.31,0l31,17.89a3.1,3.1,0,0,1,0,5.82L42.35,165.19A9.42,9.42,0,0,1,37.69,166.31ZM60.54,110a8.77,8.77,0,0,0-4.28,1L2.42,142.14a2.36,2.36,0,0,0,0,4.5l31,17.89a9.47,9.47,0,0,0,8.55,0L95.8,133.45a2.35,2.35,0,0,0,0-4.5l-31-17.89A8.75,8.75,0,0,0,60.54,110Z" fill="#1f89c9"></path><path d="M98,121.42h0V106.56l-18.78,2.51L65.15,101a9.83,9.83,0,0,0-8.93,0L31,115.49.54,119.56v15.13h0a3.18,3.18,0,0,0,1.83,2.5l31,17.89a9.89,9.89,0,0,0,8.93,0L96.15,124A3.18,3.18,0,0,0,98,121.51h0Z" fill="url(#n)"></path><path d="M96.15,103.87,65.15,86a9.83,9.83,0,0,0-8.93,0L2.38,117.06c-2.46,1.42-2.46,3.73,0,5.16l31,17.89a9.89,9.89,0,0,0,8.93,0L96.15,109C98.61,107.6,98.61,105.29,96.15,103.87Z" fill="url(#o)"></path><path d="M96.15,108.13,42.31,139.21a9.89,9.89,0,0,1-8.93,0l-31-17.9a3.43,3.43,0,0,1-1.79-2.12c-.23,1.07.36,2.2,1.79,3l31,17.9a9.89,9.89,0,0,0,8.93,0L96.15,109c1.43-.83,2-2,1.79-3A3.44,3.44,0,0,1,96.15,108.13Z" fill="#fff"></path><polygon points="60.47 135.76 59 136.61 59 134.92 60.47 134.07 60.47 135.76" fill="#fff"></polygon><polygon points="63.54 133.99 62.07 134.84 62.07 133.14 63.54 132.3 63.54 133.99" fill="#fff"></polygon><polygon points="66.61 132.22 65.14 133.06 65.14 131.37 66.61 130.52 66.61 132.22" fill="#fff"></polygon><polygon points="64.1 137.1 62.63 137.95 62.63 136.25 64.1 135.41 64.1 137.1" fill="#fff"></polygon><polygon points="66.8 135.54 65.34 136.39 65.34 134.69 66.8 133.85 66.8 135.54" fill="#fff"></polygon><polygon points="76.46 126.53 74.99 127.38 74.99 125.69 76.46 124.84 76.46 126.53" fill="#fff"></polygon><polygon points="84.91 121.65 83.45 122.5 83.45 120.81 84.91 119.96 84.91 121.65" fill="#fff"></polygon><polygon points="69.68 130.45 68.21 131.29 68.21 129.6 69.68 128.75 69.68 130.45" fill="#fff"></polygon><polygon points="48.86 99.84 70.76 112.45 68.74 113.62 46.84 101.01 48.86 99.84" fill="#11203c"></polygon><polygon points="47.6 101.45 48.98 100.65 70.11 112.83 70.76 112.45 48.86 99.84 46.84 101.01 47.6 101.45" fill="#fff"></polygon><polygon points="54.99 96.29 76.89 108.91 74.87 110.07 52.98 97.46 54.99 96.29" fill="#11203c"></polygon><polygon points="53.74 97.9 55.11 97.1 76.25 109.28 76.89 108.91 54.99 96.29 52.98 97.46 53.74 97.9" fill="#fff"></polygon><polygon points="61.13 92.74 83.03 105.36 81.01 106.52 59.11 93.91 61.13 92.74" fill="#11203c"></polygon><polygon points="59.87 94.35 61.25 93.55 82.38 105.73 83.03 105.36 61.13 92.74 59.11 93.91 59.87 94.35" fill="#fff"></polygon><path d="M37.45,133.16a3.29,3.29,0,0,1-1.58-.37L15,120.75a1.26,1.26,0,0,1-.71-1.07,1.61,1.61,0,0,1,.95-1.31L35.63,106.6a3.92,3.92,0,0,1,3.58-.14l20.86,12a1.26,1.26,0,0,1,.7,1.07,1.6,1.6,0,0,1-.94,1.31L39.45,132.65A4.16,4.16,0,0,1,37.45,133.16Zm-1.3-.85a3.42,3.42,0,0,0,3-.13l20.38-11.77a1.13,1.13,0,0,0,.67-.84.74.74,0,0,0-.44-.59l-20.85-12a3.42,3.42,0,0,0-3,.13L15.53,118.84c-.43.25-.67.55-.67.84a.73.73,0,0,0,.43.59Z" fill="#11203c"></path><path d="M27.8,145.58l-17.2-9.93a1.8,1.8,0,0,1-.75-1.42V133c0-.55.34-.8.75-.56l17.2,9.93a1.76,1.76,0,0,1,.75,1.42V145C28.55,145.57,28.22,145.82,27.8,145.58Z" fill="#11203c"></path><circle cx="101.35" cy="41.74" r="6.21" fill="#1f89c9" opacity="0.33"></circle><circle cx="101.35" cy="41.74" r="3.05" fill="#1f89c9"></circle><circle cx="102.4" cy="188.1" r="6.21" fill="#1f89c9" opacity="0.33"></circle><circle cx="102.4" cy="188.1" r="3.05" fill="#1f89c9"></circle><circle cx="279.98" cy="159.9" r="6.21" fill="#1f89c9" opacity="0.33"></circle><circle cx="279.98" cy="159.9" r="3.05" fill="#1f89c9"></circle><path d="M165.79,69a3.38,3.38,0,1,1-3.37-3.37A3.37,3.37,0,0,1,165.79,69Z" fill="#03a7d3" opacity="0.4"></path><path d="M164.08,69a1.66,1.66,0,1,1-1.66-1.65A1.66,1.66,0,0,1,164.08,69Z" fill="#03a7d3" opacity="0.8"></path><path d="M291.24,205.3a1.83,1.83,0,1,1-1.83-1.83A1.83,1.83,0,0,1,291.24,205.3Z" fill="#03a7d3" opacity="0.4"></path><circle cx="275.49" cy="104.55" r="1.02" fill="#03a7d3" opacity="0.4"></circle><path d="M113.61,184.49a1,1,0,1,1-1-1A1,1,0,0,1,113.61,184.49Z" fill="#03a7d3" opacity="0.4"></path></g></svg>