<svg width="494" height="320" viewBox="0 0 494 320" fill="none" xmlns="http://www.w3.org/2000/svg"><g clip-path="url(#clip0_29_851)"><path opacity=".8" fill-rule="evenodd" clip-rule="evenodd" d="M159.421 67.67H54.311A12.106 12.106 0 0 1 54 64.933c0-6.348 4.879-11.556 11.09-12.08a16.858 16.858 0 0 1 10.565-8.807C79.04 34.137 88.55 27 99.754 27c10.985 0 20.342 6.86 23.893 16.467 6.991.498 12.8 5.27 14.83 11.716a10.953 10.953 0 0 1 10.789 6.49 8.608 8.608 0 0 1 2.107-.26c3.973 0 7.287 2.687 8.048 6.257zm335 0H389.31c-.203-.88-.31-1.796-.31-2.737 0-6.348 4.879-11.556 11.091-12.08a16.855 16.855 0 0 1 10.564-8.807C414.039 34.137 423.55 27 434.754 27c10.985 0 20.342 6.86 23.893 16.467 6.991.498 12.8 5.27 14.83 11.716a10.953 10.953 0 0 1 10.789 6.49 8.608 8.608 0 0 1 2.107-.26c3.973 0 7.287 2.687 8.048 6.257zM1.65 102.205h58.41a6.777 6.777 0 0 0-9.518-6.2 10.417 10.417 0 0 0-8.837-7.764C39.521 82.269 33.716 78 26.9 78c-6.798 0-12.589 4.245-14.788 10.19a10.576 10.576 0 0 0-.703-.024C5.66 88.166 1 92.826 1 98.574c0 1.277.23 2.5.65 3.631z" fill="#fff"/><circle opacity=".3" cx="389" cy="63" r="65" fill="#FEE6B7"/><circle opacity=".3" cx="391.5" cy="62.5" r="50.5" fill="#FEE6B7"/><circle cx="391.5" cy="62.5" r="33.5" fill="#FFFAF0"/><path d="M168.974 124.482v-4.194l34.755 48.258-.664 3.542-34.091-47.606z" fill="#989797"/><path d="M203.065 172.088v-3.542h80.136v3.542h-80.136z" fill="#767475"/><path d="M168.974 120.288l81.243 1.549 32.098 46.045-78.143-.664-35.198-46.93z" fill="url(#paint0_linear_29_851)"/><path d="M181.813 122.501l33.206 44.053m-22.137-44.053l33.205 44.053m-22.137-44.053l33.206 44.053m-22.58-44.053l33.206 44.053m-22.137-44.053l33.205 44.053m-21.473-44.274l31.656 44.274m-91.205-36.304h76.595m-70.396 7.747h76.595m-71.725 7.526h76.595m-70.839 7.527h76.595m-71.725 7.527h76.595" stroke="#fff" stroke-opacity=".6" stroke-width=".458"/><path d="M203.878 167.4l-32.661-45.936 78.835 1.068 30.965 44.868h-77.139z" stroke="#BAB9BA" stroke-width="2.292"/><path opacity=".3" d="M191.554 122.723h5.977l60.434 43.388h-4.871l-61.54-43.388zm12.175.221h8.412l60.434 43.167h-7.748l-61.098-43.167z" fill="#fff"/><path d="M272.575 124.039v-4.194l34.755 48.258-.664 3.542-34.091-47.606z" fill="#989797"/><path d="M306.666 171.645v-3.542h80.135v3.542h-80.135z" fill="#767475"/><path d="M272.575 119.845l81.242 1.549 32.099 46.045-78.143-.664-35.198-46.93z" fill="url(#paint1_linear_29_851)"/><path d="M285.414 122.059l33.206 44.052m-22.137-44.052l33.205 44.052m-22.137-44.052l33.206 44.052m-22.58-44.052l33.205 44.052m-22.137-44.052l33.206 44.052m-21.473-44.274l31.656 44.274m-91.205-36.303h76.595m-70.396 7.746h76.595m-71.725 7.527h76.595m-70.839 7.526h76.595m-71.725 7.527h76.595" stroke="#fff" stroke-opacity=".6" stroke-width=".458"/><path d="M307.478 166.957l-32.661-45.936 78.836 1.068 30.965 44.868h-77.14z" stroke="#BAB9BA" stroke-width="2.292"/><path opacity=".3" d="M295.155 122.28h5.977l60.433 43.388h-4.87l-61.54-43.388zm12.175.221h8.412l60.434 43.167h-7.748l-61.098-43.167z" fill="#fff"/><path d="M235.9 321.353c123.656 0 223.899-3.944 223.899-8.809 0-4.865-100.243-8.808-223.899-8.808-123.657 0-223.9 3.943-223.9 8.808s100.243 8.809 223.9 8.809z" fill="#AAC96D"/><path d="M393.087 193.018s-15.097-17.935 8.457-17.585c0 0-5.087-7.137 7.123-8.156 0 0 1.298-12.312 11.087-4.414 0 0 5.432-3.697 13.091-.403 0 0 10.356-12.684 12.587 6.96 0 0 8.262-1.687 9.09 4.166 0 0 16.332 7.726-1.873 15.505 0 0 8.005 5.189.186 11.148 0 0-2.037 10.498-7.978 7.288 0 0-8.032 10.922-19.552 1.474 0 0-15.057 8.731-22.278-6.145 0 0-14.181-1.714-9.94-9.833v-.005z" fill="#809645"/><path d="M427.785 207.292s-4.768-14.894 8.438-12.295c0 0-.748-6.902 9.271-5.259 0 0 3.525-9.639 9.803-1.315 0 0 6.419-5.287 10.608 2.315 0 0 11.706-5.844 9.372 6.154 0 0 7.04-2.209 5.814 7.155 0 0 6.074 6.34-3.011 10.696 0 0 3.316 7.593-6.283 9.085 0 0-.132 9.201-9.514 5.566 0 0-7.836 7.699-11.812-2.763 0 0-13.336 5.49-13.659-6.818 0 0-15.894 0-9.023-12.516l-.004-.005z" fill="#A0BC57"/><path d="M478.075 214.743s3.317 7.593-6.282 9.081c0 0-.133 9.2-9.514 5.565 0 0-7.837 7.695-11.813-2.763 0 0-12.264 5.048-13.552-5.397 3.595.421 7.403-1.146 7.403-1.146 3.975 10.457 11.812 2.763 11.812 2.763 9.382 3.634 9.514-5.561 9.514-5.561 9.599-1.492 6.287-9.085 6.287-9.085 9.085-4.357 3.011-10.697 3.011-10.697 1.231-9.364-5.813-7.159-5.813-7.159.053-.266.097-.531.141-.779 3.259-.726 7.505-.346 6.013 7.323 0 0 7.039-2.21 5.813 7.154 0 0 6.074 6.345-3.011 10.701h-.009z" fill="#CCD6B6" style="mix-blend-mode:multiply"/><path d="M366.545 159.202s-4.768-14.894 8.439-12.295c0 0-.748-6.902 9.271-5.26 0 0 3.524-9.638 9.802-1.315 0 0 6.42-5.286 10.608 2.316 0 0 11.706-5.844 9.373 6.154 0 0 7.039-2.209 5.813 7.155 0 0 6.074 6.34-3.011 10.696 0 0 3.316 7.593-6.282 9.085 0 0-.133 9.2-9.515 5.565 0 0-7.836 7.7-11.812-2.762 0 0-13.335 5.49-13.658-6.819 0 0-15.895 0-9.023-12.516l-.005-.004z" fill="#A0BC57"/><path d="M419.568 155.651s-14.018-16.656 7.849-16.329c0 0-4.719-6.627 6.615-7.57 0 0 1.204-11.432 10.289-4.1 0 0 5.047-3.431 12.158-.376 0 0 10.147-8.855 11.312 3.896 0 0 8.336 1.222 6.101 9.284 0 0 10.701 6.814.969 11.542 0 0 7.434 4.817.173 10.351 0 0-1.891 9.745-7.407 6.765 0 0-7.46 10.144-18.152 1.368 0 0-13.982 8.107-20.685-5.702 0 0-12.729 2.262-9.227-9.129h.005z" fill="#A0BC57"/><path d="M384.981 189.702c3.692.381 5.069.208 8.381.505 2.209-2.489 1.417-6.278.239-9.094l.075-.04c1.669 2.71 2.869 6.278 1.413 9.346 2.749.372 5.671 1.758 6.658 4.547.115.23.239.434.43.629 3.745 3.201 9.032 4.272 13.72 5.485.124-6.929.199-12.086.23-14.322-1.762-3.064-3.134-8.846-4.21-15.186-5.995-3.29-12.344-5.911-18.582-8.7l.111-.275c6.119 2.396 12.282 4.711 18.232 7.509-1.55-9.638-2.448-20.162-3.015-24.24h.022c2.471 13.159 4.087 26.852 9.324 39.24.952-5.72 6.159-16.027 11.525-25.643.084-.62.062-1.253.026-1.891-.58-6.331-2.067-12.596-3.688-18.736 1.97 6.127 3.812 12.352 4.72 18.741 4.569-8.093 9.054-15.425 10.918-18.741l.327.19c-8.341 17.577-19.179 30.801-21.402 51.251l-.062-.053c.133 2.714.328 6.566.563 10.932 7.849-1.063 12.914-9.382 17.39-15.297-1.598-6.322-.106-13.03.501-19.414l.221.022c-.243 5.871-.744 11.905.421 17.696 3.834-5.844 7.256-11.963 10.32-18.249-3.294 7.814-7.066 15.447-11.595 22.632 11.312-.088 28.68 1.355 38.425-4.392-5.424 7.527-30.89 6.69-40.055 6.867-3.896 5.318-8.376 11.928-15.482 12.84.27 4.998.575 10.47.885 15.58l16.461-18.972-7.177 10.046c11.317 1.727 25.577 4.525 36.579.549-10.355 4.547-24.213 3.161-35.689 2.077a4.522 4.522 0 0 0-4.108 1.877 27.975 27.975 0 0 0-5.118 18.466c2.019 25.493 6.3 76.488 6.101 75.385l-17.139.563c2.232-12.432 3.458-77.847 3.972-105.589-4.84-1.837-9.794-3.4-13.929-6.606-3.166 2.524-7.566 8.488-11.879 5.18 4.605 1.745 7.589-4.206 10.577-6.827-2.807-7.354-12.914-2.452-17.944-6.53 0 0 1.315.496 2.316.646l-.009-.004z" fill="#654D1E"/><path d="M461.3 212.64c2.263-.318 4.454-.828 6.526-1.58-5.791 2.541-12.68 3.227-19.635 3.152 4.538-.049 9.001-.474 13.109-1.572zm-39.939 96.23c.194 1.102 1.602-49.893-.417-75.386a27.947 27.947 0 0 1 5.119-18.466 4.53 4.53 0 0 1 4.108-1.877l.682.066a4.529 4.529 0 0 0-2.825 1.811 27.98 27.98 0 0 0-5.118 18.466c2.019 25.493 6.3 76.488 6.101 75.386l-17.138.562.013-.067 9.479-.5-.004.005z" fill="#98732D"/><path d="M448.735 185.222s-10.546-12.53 5.906-12.282c0 0-3.55-4.985 4.977-5.698 0 0 .903-8.598 7.743-3.086 0 0 3.52-5.986 9.143-.283 0 0 7.243-6.721 8.142 2.829 0 0 7.026-.12 5.105 6.968 0 0 8.947 4.685.584 8.807 0 0 4.936 3.909-.522 8.075 0 0 .11 6.588-6.367 5.326 0 0-4.162 7.106-12.206.509 0 0-10.515 6.101-15.558-4.29 0 0-9.904-1.195-6.942-6.867l-.005-.008z" fill="#B3C978"/><path d="M490.924 182.162c-1.085-1.908-3.693-3.272-3.693-3.272 1.922-7.088-5.104-6.968-5.104-6.968-.904-9.55-8.142-2.829-8.142-2.829-5.628-5.703-9.147.279-9.147.279-6.836-5.517-7.739 3.085-7.739 3.085-.988.085-1.811.222-2.502.408-.39-.607-2.913-4.968 5.021-5.627 0 0 .903-8.598 7.739-3.086 0 0 3.52-5.986 9.147-.279 0 0 7.243-6.725 8.142 2.824 0 0 7.03-.119 5.104 6.969 0 0 8.514 4.454 1.174 8.492v.004z" fill="#9A9C9A" style="mix-blend-mode:overlay"/><path d="M392.268 146.792s-12.511-14.867 7.009-14.575c0 0-4.215-5.915 5.902-6.761 0 0 1.071-10.205 9.186-3.661 0 0 4.503-3.064 10.852-.337 0 0 8.585-10.515 10.431 5.769 0 0 6.845-1.399 7.531 3.454 0 0 13.534 6.406-1.554 12.848 0 0 6.636 4.299.155 9.24 0 0-1.687 8.7-6.61 6.039 0 0-6.659 9.054-16.205 1.222 0 0-12.48 7.239-18.462-5.092 0 0-11.75-1.421-8.235-8.151v.005z" fill="#B3C978"/><path d="M446.592 140.687c-1.151-2.838-5.286-4.795-5.286-4.795-.686-4.853-7.531-3.454-7.531-3.454-1.851-16.279-10.431-5.769-10.431-5.769-6.349-2.727-10.851.333-10.851.333-8.116-6.544-9.187 3.661-9.187 3.661-1.939.159-3.347.509-4.366.965-.757-1.514-1.912-5.49 6.243-6.172 0 0 1.071-10.205 9.187-3.661 0 0 4.507-3.064 10.851-.337 0 0 8.585-10.515 10.436 5.769 0 0 6.844-1.399 7.531 3.454 0 0 9.82 4.644 3.409 10.006h-.005z" fill="#9A9C9A" style="mix-blend-mode:overlay"/><path d="M356.367 198.322s-11.458-13.61 6.415-13.344c0 0-3.856-5.415 5.406-6.19 0 0 .983-9.341 8.412-3.351 0 0 4.122-2.807 9.935-.306 0 0 7.858-9.625 9.55 5.282 0 0 6.269-1.279 6.898 3.161 0 0 13.18 4.339-.634 10.241 0 0 4.379 5.202-2.089 8.62 0 0 2.165 6.792-5.955 7.318 0 0-8.076 9.378-13.49.696 0 0-11.427 6.627-16.904-4.662 0 0-10.759-1.302-7.54-7.461l-.004-.004z" fill="#B3C978"/><path d="M394.3 209.754s-8.075 9.377-13.49.695c0 0-11.427 6.628-16.904-4.662 0 0-10.762-1.302-7.539-7.46 0 0-7.009-8.328-1.51-11.83.81 3.183 3.374 6.224 3.374 6.224-3.219 6.163 7.539 7.461 7.539 7.461 5.477 11.285 16.904 4.662 16.904 4.662 5.415 8.682 13.49-.691 13.49-.691 1.922-.124 3.268-.602 4.206-1.257.315 1.531.766 6.415-6.07 6.858z" fill="#A0BC57"/><path d="M405.878 181.6H184.084v126.574h221.794V181.6z" fill="#FED993"/><path d="M184.194 308.175H25.73l.26-118.654.023-7.925 79.533-118.978 78.538 118.978.004 6.1.106 120.479z" fill="#FEE6B7"/><path d="M59.457 198.721c9.696-9.683 22.584-15.018 36.283-15.018 28.295 0 51.313 23.014 51.313 51.305v73.171h-5.175v-73.171c0-25.436-20.699-46.129-46.143-46.129-12.317 0-23.903 4.795-32.625 13.503-8.709 8.722-13.504 20.309-13.504 32.626v73.171h-5.175v-73.171c0-13.699 5.335-26.587 15.017-36.283l.01-.004z" fill="#F9BE77"/><path d="M122.663 215.872H68.821v92.298h53.842v-92.298z" fill="#F9BE77"/><path d="M119.404 219.569H72.08v88.601h47.324v-88.601z" fill="#fff"/><path d="M114.18 227.25H77.304v32.869h36.876V227.25zm0 40.374H77.304v32.869h36.876v-32.869zm-.173-3.524a2.175 2.175 0 0 0 4.348 0 2.175 2.175 0 0 0-4.348 0z" fill="#C4C4C0"/><path d="M60.418 240.989h-1.749v4.604h1.749v-4.604z" fill="#623A0B"/><path d="M59.541 242.454a4.548 4.548 0 0 0 4.547-4.547v-8.049h-9.093v8.049a4.548 4.548 0 0 0 4.546 4.547z" fill="#FECD6F"/><path d="M59.541 240.817a3.364 3.364 0 0 0 3.365-3.365v-5.96h-6.734v5.96a3.364 3.364 0 0 0 3.365 3.365h.004z" fill="#FEF2DB"/><path d="M56.385 244.296h6.318c.34 0 .615.275.615.616v2.209a.614.614 0 0 1-.615.615h-6.318a.614.614 0 0 1-.616-.615v-2.209c0-.341.275-.616.616-.616zm-2.59-11.263v-.031a5.751 5.751 0 1 1 11.502 0v.031H53.795zm81.012 7.956h-1.749v4.604h1.749v-4.604z" fill="#623A0B"/><path d="M133.935 242.454a4.548 4.548 0 0 0 4.547-4.547v-8.049h-9.094v8.049a4.547 4.547 0 0 0 4.547 4.547z" fill="#FECD6F"/><path d="M133.935 240.817a3.364 3.364 0 0 0 3.365-3.365v-5.96h-6.735v5.96a3.364 3.364 0 0 0 3.365 3.365h.005z" fill="#FEF2DB"/><path d="M130.774 244.296h6.322c.341 0 .615.275.615.616v2.209a.613.613 0 0 1-.615.615h-6.322a.614.614 0 0 1-.616-.615v-2.209c0-.341.275-.616.616-.616zm-2.59-11.263v-.031a5.75 5.75 0 1 1 11.502 0v.031h-11.502z" fill="#623A0B"/><path d="M126.687 138.194c0 14.407-11.679 26.086-26.086 26.086-14.407 0-26.086-11.679-26.086-26.086 0-14.407 11.68-26.086 26.086-26.086 14.407 0 26.086 11.679 26.086 26.086z" fill="#fff"/><path d="M122.14 138.194c0 .509-.017 1.018-.053 1.518-.744 10.688-9.284 19.224-19.967 19.968a21.847 21.847 0 0 1-3.038 0c-10.687-.744-19.223-9.28-19.963-19.968a19.09 19.09 0 0 1-.057-1.518c0-.509.017-1.019.057-1.519.74-10.688 9.276-19.224 19.963-19.963.5-.04 1.01-.057 1.519-.057.509 0 1.018.017 1.519.057 10.687.739 19.223 9.275 19.967 19.963.036.5.053 1.01.053 1.519z" fill="#C5E2E6"/><path d="M122.14 138.194c0 .509-.017 1.018-.053 1.518H102.12v19.968a21.847 21.847 0 0 1-3.038 0v-19.968H79.12a19.09 19.09 0 0 1-.057-1.518c0-.509.017-1.019.057-1.519h19.963v-19.963c.5-.04 1.01-.057 1.519-.057.509 0 1.018.017 1.519.057v19.963h19.967c.036.5.053 1.01.053 1.519z" fill="#fff"/><path d="M272.521 232.484v52.854h-4.569v-52.854c0-13.074-10.635-23.704-23.7-23.704-6.322 0-12.277 2.466-16.762 6.937-4.481 4.485-6.947 10.445-6.947 16.767v52.854h-4.56v-52.854c0-7.544 2.935-14.641 8.275-19.994 5.348-5.344 12.445-8.279 19.99-8.279 15.588 0 28.264 12.675 28.264 28.273h.009z" fill="#F7A84A"/><path d="M223.979 230.054c.505-9.187 9.377-16.506 20.246-16.506 10.87 0 19.742 7.319 20.247 16.506h.022v49.002h-40.542v-49.002h.027z" fill="#fff"/><path d="M243.198 236.969h-16.505v-6.455h.022c.421-7.655 7.558-13.809 16.483-14.252v20.707zm2.063 0v-20.707c8.93.443 16.067 6.597 16.484 14.252h.022v6.455h-16.506zm-2.063 2.165h-16.509v36.929h16.509v-36.929zm18.569 0h-16.506v36.924h16.506v-36.924z" fill="#C5E2E6"/><path d="M265.76 278.954h-43.016v2.683h43.016v-2.683z" fill="#fff"/><path d="M265.76 281.225h-43.016v2.683h43.016v-2.683zm106.244-48.741v52.854h-4.569v-52.854c0-13.074-10.634-23.704-23.7-23.704-6.322 0-12.277 2.466-16.762 6.937a23.58 23.58 0 0 0-6.942 16.767v52.854h-4.56v-52.854c0-7.544 2.935-14.641 8.275-19.994 5.348-5.344 12.445-8.279 19.989-8.279 15.589 0 28.265 12.675 28.265 28.273h.004z" fill="#F7A84A"/><path d="M323.462 230.054c.505-9.187 9.378-16.506 20.247-16.506s19.741 7.319 20.246 16.506h.022v49.002h-40.541v-49.002h.026z" fill="#fff"/><path d="M342.682 236.969h-16.506v-6.455h.022c.421-7.655 7.558-13.809 16.484-14.252v20.707zm2.063 0v-20.707c8.93.443 16.067 6.597 16.483 14.252h.022v6.455h-16.505zm-2.063 2.165h-16.51v36.929h16.51v-36.929zm18.568 0h-16.505v36.924h16.505v-36.924z" fill="#C5E2E6"/><path d="M365.244 278.954h-43.017v2.683h43.017v-2.683z" fill="#fff"/><path d="M365.244 281.225h-43.017v2.683h43.017v-2.683z" fill="#F7A84A"/><path d="M405.878 179.794H184.084v7.818h221.794v-7.818z" fill="#D7D8D9" style="mix-blend-mode:multiply"/><path d="M184.088 187.696l-4.817-.088L103.2 79.81 25.99 189.52l.023-7.925 79.533-118.978 78.538 118.978.004 6.1z" fill="#D7D8D9" style="mix-blend-mode:multiply"/><path d="M103.2 69.822l-77.12 111.76H12.27L93.836 61.388 96.829 57l5.729 11.772.642 1.05z" fill="#BA5A46"/><path d="M413.555 181.6H184.084L103.2 69.822l-3.852-.346L96.828 57h228.286l88.441 124.6z" fill="#BA5A46"/><path d="M293.865 319.106c23.183 0 41.976-1.523 41.976-3.401 0-1.877-18.793-3.4-41.976-3.4-23.182 0-41.976 1.523-41.976 3.4 0 1.878 18.794 3.401 41.976 3.401z" fill="#D7D8D9" style="mix-blend-mode:multiply"/><path d="M284.848 316.811l2.975.075 21.96-118.999-2.976-.075-21.959 118.999zm-22.899-.102l2.975.08 21.956-119.008-2.975-.075-21.956 119.003z" fill="#fff"/><path d="M320.488 316.709l3.223.084-13.959-118.937-2.958-.075.58 5.047h-19.981l-.504-5.047-2.958-.075 11.631 118.95 3.223.084-1.257-12.582 21.503-.027 1.448 12.578h.009zm-27.038-53.376l20.888-.018 1.869 16.235-21.137.022-1.624-16.235.004-.004zm18.219-23.222l-20.539.009-1.536-15.341h20.308l1.767 15.332zm.42 3.662l1.816 15.774-20.836.014-1.58-15.78 20.596-.008h.004zm-4.316-37.478l1.717 14.916h-20.255l-1.492-14.916h20.03zm-10.639 93.869l-1.674-16.713 21.194-.022 1.926 16.713-21.446.027v-.005z" fill="#fff"/><path d="M286.911 187.7h-2.975v10.085h2.975V187.7zm22.872 0h-2.976v10.085h2.976V187.7z" fill="#fff"/><path d="M308.295 190.892c1.905 0 3.449-1.889 3.449-4.22 0-2.33-1.544-4.219-3.449-4.219-1.905 0-3.449 1.889-3.449 4.219 0 2.331 1.544 4.22 3.449 4.22zm-22.358 0c1.905 0 3.449-1.889 3.449-4.22 0-2.33-1.544-4.219-3.449-4.219-1.905 0-3.449 1.889-3.449 4.219 0 2.331 1.544 4.22 3.449 4.22z" fill="#fff"/><path d="M166.318 124.039v-4.194l34.755 48.258-.665 3.542-34.09-47.606z" fill="#989797"/><path d="M200.409 171.645v-3.542h80.135v3.542h-80.135z" fill="#767475"/><path d="M166.318 119.845l81.242 1.549 32.099 46.045-78.144-.664-35.197-46.93z" fill="url(#paint2_linear_29_851)"/><path d="M166.318 119.845l81.242 1.549 32.099 46.045-78.144-.664-35.197-46.93z" fill="url(#paint3_linear_29_851)" fill-opacity=".2"/><path d="M179.157 122.059l33.205 44.052m-22.136-44.052l33.205 44.052m-22.137-44.052l33.205 44.052m-22.579-44.052l33.205 44.052m-22.137-44.052l33.206 44.052m-21.473-44.274l31.656 44.274m-91.205-36.303h76.595m-70.396 7.746h76.595m-71.725 7.527h76.595m-70.84 7.526h76.596m-71.725 7.527h76.595" stroke="#fff" stroke-opacity=".6" stroke-width=".458"/><path d="M201.221 166.957l-32.661-45.936 78.836 1.068 30.965 44.868h-77.14z" stroke="#BAB9BA" stroke-width="2.292"/><path opacity=".3" d="M170.745 122.501h5.977l60.434 43.389h-4.87l-61.541-43.389zm35.862 0h8.412l60.434 43.167h-7.748l-61.098-43.167zm-19.259 0h12.175l60.434 43.167h-11.511l-61.098-43.167z" fill="#fff"/><path d="M268.59 124.039v-4.194l34.755 48.258-.664 3.542-34.091-47.606z" fill="#989797"/><path d="M302.681 171.645v-3.542h80.136v3.542h-80.136z" fill="#767475"/><path d="M268.59 119.845l81.243 1.549 32.098 46.045-78.143-.664-35.198-46.93z" fill="url(#paint4_linear_29_851)"/><path d="M268.59 119.845l81.243 1.549 32.098 46.045-78.143-.664-35.198-46.93z" fill="url(#paint5_linear_29_851)" fill-opacity=".2"/><path d="M281.43 122.059l33.205 44.052m-22.137-44.052l33.206 44.052m-22.137-44.052l33.205 44.052m-22.58-44.052l33.206 44.052m-22.137-44.052l33.205 44.052m-21.473-44.274l31.656 44.274m-91.205-36.303h76.595m-70.396 7.746h76.595m-71.725 7.527h76.596m-70.84 7.526h76.595m-71.725 7.527h76.595" stroke="#fff" stroke-opacity=".6" stroke-width=".458"/><path d="M303.494 166.957l-32.661-45.936 78.835 1.068 30.966 44.868h-77.14z" stroke="#BAB9BA" stroke-width="2.292"/><path opacity=".3" d="M307.994 122.059h5.977l60.434 43.388h-4.87l-61.541-43.388zm-28.335.442h5.977l60.433 43.389h-4.87l-61.54-43.389zm39.403.443h8.412l43.167 31.655 7.527 10.626-59.106-42.281z" fill="#fff"/><path d="M295.436 140.216c-.168-.275-.443-1.474-.628-1.492-.505-.049-.257.974-.244 1.448l-1.576-.567c-.354.274-1.076 2.271-.638 2.873.461.633 1.364 1.218 1.767 1.262l1.74-1.355c.155-.487-.115-1.669-.421-2.174v.005zm16.985 20.914l-6.301 2.546s-5.831-3.107-7.634-6.059c-1.097-1.794-4.217-13.097-4.217-13.097l.076-.062 1.796-1.52.08-.071.915 1.75 4.881 9.761.666.822 9.738 5.93z" fill="#EA956B"/><path d="M299.037 159.926c-1.674 1.58-7.726 6.371-10.352 6.388-1.332.009-3.9-3.984-5.791-7.283a132.087 132.087 0 0 1-2.346-4.254c-.102-.2 1.93-1.284 1.93-1.284 1.621 1.903 5.012 5.888 6.646 7.81 0 0 5.592-4.538 7.885-5.752 3.462-1.833 5.171 1.386 2.028 4.37v.005z" fill="#EA956B"/><path d="M282.333 151.476c-.177-.297-.319-1.2-.868-1.382-.518-.168.067.89-.168 1.337-.323.62-1.585-2.125-2.068-1.337-.628 1.028-.314.997-.664 1.665-.832 1.576.713 2.816 2.05 3.139l2.179-1.089c.168-.522-.124-1.789-.452-2.333h-.009z" fill="#EA956B"/><path d="M292.067 132.959l.917 2.373c.013.04.048.067.088.071l.567.089-1.435 9.067c-.062.381.2.735.576.792a.69.69 0 0 0 .792-.575l1.435-9.072.571.089a.12.12 0 0 0 .106-.04l1.599-1.979a.12.12 0 0 0 .017-.115l-.46-1.191a.106.106 0 0 0-.089-.071l-.549-.089-.146.935a1.348 1.348 0 0 1-2.661-.421l.146-.934-.549-.089c-.039-.004-.084.009-.106.04l-.806.996a.118.118 0 0 0-.017.115l.004.009zm.522 11.587a.32.32 0 0 1 .364-.266.32.32 0 0 1-.098.629.32.32 0 0 1-.266-.363z" fill="#5C40C7"/><path d="M292.067 132.959l.917 2.373c.013.04.048.067.088.071l.567.089-1.435 9.067c-.062.381.2.735.576.792a.69.69 0 0 0 .792-.575l1.435-9.072.571.089a.12.12 0 0 0 .106-.04l1.599-1.979a.12.12 0 0 0 .017-.115l-.46-1.191a.106.106 0 0 0-.089-.071l-.549-.089-.146.935a1.348 1.348 0 0 1-2.661-.421l.146-.934-.549-.089c-.039-.004-.084.009-.106.04l-.806.996a.118.118 0 0 0-.017.115l.004.009zm.522 11.587a.32.32 0 0 1 .364-.266.32.32 0 0 1-.098.629.32.32 0 0 1-.266-.363z" fill="#B1C5DB"/><path d="M295.623 135.793h-.04l-.333-.053v-.009l.373.058v.004z" fill="#4B2FB3"/><path d="M296.207 132.313l.239.04-.146.925a1.347 1.347 0 0 1-1.541 1.12c-.022 0-.044-.009-.071-.013a1.344 1.344 0 0 0 1.368-1.138l.146-.934h.005zm-3.321-.465c.027-.031.067-.049.106-.04l.2.031a.11.11 0 0 0-.067.04l-.806.996a.118.118 0 0 0-.017.115l.916 2.373c.013.04.049.067.089.071l.566.089-1.434 9.067a.691.691 0 0 0 .483.77c-.049 0-.098 0-.147-.008a.692.692 0 0 1-.575-.793l1.434-9.067-.566-.089a.111.111 0 0 1-.089-.071l-.916-2.373a.118.118 0 0 1 .017-.115l.806-.996zm.102 13.052a.32.32 0 0 0 .23-.257.326.326 0 0 0-.159-.327.32.32 0 0 1 .403.354.32.32 0 0 1-.363.266.232.232 0 0 1-.107-.04l-.004.004z" fill="#99B2CC"/><path d="M296.308 143.067l-1.979 1.523a82.574 82.574 0 0 1-.54-1.417c-.075-.199 1.957-.969 1.957-.969.164.257.354.544.562.863zm-2.926-1.85c-.124.801-.629 1.478-.877 1.443-.248-.04-.146-.779-.022-1.581.124-.801.354-1.505.602-1.47.248.04.425.806.301 1.608h-.004z" fill="#EA956B"/><path d="M309.69 171.268s.938.814.93 1.25c-.008.437-.799.068-1.128-.368-.329-.434.198-.882.198-.882zm-12.558.277s-.607.233-.627.558c-.019.324.785.535.904.535.118 0-.277-1.093-.277-1.093z" fill="#04040B"/><path d="M309.934 156.111s1.635.076 2.266.481c0 0 .827 1.019.885 3.099.075 2.685-1.139 3.32-1.139 3.32-.288.292-1.4.831-2.012 2.435-.612 1.605 0-9.335 0-9.335z" fill="#E97158"/><path d="M302.57 154.978s-2.412-.56-4.002-.744c-1.591-.183-7.398 3.686-7.841 5.678l.443.664c.443.886 2.387 3.283 2.657 3.321 1.234.177 2.727-1.75 2.877-1.55.184.245.265 5.294.326 5.967.062.673-.299 5.614-.054 5.981.244.368 13.033 1.536 13.033 1.536s.134-8.618.316-9.963c.184-1.346 2.04-5.112 1.631-8.674-.111-.98-4.095-1.651-4.095-1.651l-5.29-.565h-.001z" fill="#E97158"/><path d="M297.945 162.689c0-.25-.978-.714-1.555-.953a.066.066 0 0 0-.09.069l.916 7.323c.009.077.119.078.127 0 .233-2.062.602-6.197.602-6.439z" fill="#BA5A46"/><path d="M300.771 149.679c-.006-.007-.005-.015-.013-.021-.157-.113-.405-.611-.082-.772.271-.135.765-.521.843-.635l.013-.027c.057-.143.093-.532.101-.778.015-.472 1.03-2.044 1.488-2.474.458-.43 3.658-1.508 5.291-.276 1.632 1.231 1.861 4.067 1.26 5.069-.601 1.003-2.749 2.807-2.749 2.807-.515.487-.265 1.481.192 2.283.301.527.745.688.745.688s-.852 1.325-2.398 1.01c-1.546-.314-2.893-1.575-2.893-1.575s.573.087.601-.114c.029-.2-.286-.974-.515-1.26-.228-.287-2.091-.515-2.234-1.003-.127-.432.08-2.076.35-2.921v-.001z" fill="#EA956B"/><path d="M304.792 149.174s.743-.195 1.044.265c.301.46.017 1.45-.549 1.716-.566.266-.743.124-.76.319-.018.195.247.54.423.876.109.207 1.052.858 1.087.883.248.177.832-.425 1.221-.655.388-.23 2.175-1.486 2.565-2.636 0 0 .283.053.478-.779.194-.831.052-2.158-.178-2.583 0 0 .248.018.018-.548-.23-.567-.867-.849-.867-.849s-.442-.761-1.114-1.257c-.672-.495-.566.23-.566.178 0-.053-1.628-.195-2.796-.301-1.167-.107-1.468.353-1.468.353s-.263-.071-.812.372c-.549.442-.083 1.327-.083 1.327s.248-.207.6-.104c.276.082 1.385.539 1.438.964.054.425-.247.548-.177 1.061.071.513.106.867-.071 1.309-.177.443-.833 1.979-1.559 2.475-.466.317-.618-.466-1.027-1.13-.228-.37-.889-.687-.889-.687-.017-.053-.481 1.615-.569 2.269-.088.655-.035.849.442 1.062.478.212 1.851.966 2.435-.078.584-1.044 1.734-3.821 1.734-3.821v-.001z" fill="#4A3333"/><path d="M301.731 148.562l.007-.054a.357.357 0 0 1 .01-.072.318.318 0 0 1 .216-.218.272.272 0 0 1 .267.07.225.225 0 0 1 .053.058l.022.05a.212.212 0 0 1 .004.079.389.389 0 0 1-.009.085c-.006.026-.019.051-.03.074a.298.298 0 0 1-.097.105.635.635 0 0 1-.095.079.212.212 0 0 1-.107.029.168.168 0 0 1-.082-.019.148.148 0 0 1-.067-.044.157.157 0 0 1-.02-.025l-.008-.006a.208.208 0 0 1-.054-.093l-.002-.011c-.003-.022-.007-.044-.009-.067v-.022l.001.002z" fill="#1A1A1A"/><path d="M301.89 147.406c.038-.108.138-.138.241-.089.151.072.228.149.361.252.138.105.299.293.36.462.021.059-.024.134-.084.148-.067.015-.667-.523-.804-.598-.055-.03-.095-.114-.074-.174v-.001z" fill="#4A3333"/><path d="M300.832 149.365a.079.079 0 0 1 .056-.023c.02 0 .044.007.057.023l.104.131a.056.056 0 0 1 .017.026c.005.009.007.02.007.031 0 .02-.009.043-.023.057a.084.084 0 0 1-.057.023c-.02-.001-.044-.007-.057-.023a11.984 11.984 0 0 0-.104-.132.056.056 0 0 1-.016-.025.068.068 0 0 1-.008-.031.08.08 0 0 1 .024-.057z" fill="#DD825C"/><path d="M300.691 150.335s-.134.469-.151.553c-.017.083.519-.135.585-.218.067-.083-.435-.334-.435-.334l.001-.001z" fill="#fff"/><path d="M305.278 166.851s.172-.934.317-2.09c.144-1.155.348-2.224-.615-4.488-.964-2.264-4.491-5.669-4.925-5.804l-.254-.053s.039-.1.18-.116c.237-.027 2.018.125 2.525.366.203.096 1.904 1.585 3.085 3.247 1.187 1.671 1.706 3.493 1.889 4.676.184 1.183-.122 4.568-.122 4.568l-2.08-.306z" fill="#58929B"/><path d="M310.126 156.076s-.093-.149-.48-.258c-.591-.166-1.048-.25-1.275-.263-.132-.008-.149.054-.149.054s.269.051.349.091c.079.04.204 1.089-.115 2.642-.318 1.552-1.009 3.202-1.388 4.356-.378 1.154-.782 3.704-.782 3.704s1.937.372 1.937.312c0-.059.305-2.435.486-3.73.072-.525.684-2.341 1.142-3.834.458-1.493.275-3.074.275-3.074z" fill="#58929B"/><path d="M308.911 162.936s-.177 2.397-.444 2.473c-.268.077-3.036-.29-3.075-.481-.068-.345.055-2.298.207-2.45.153-.153 3.3.315 3.311.458h.001z" fill="#04040B"/><path d="M307.55 215.546s-.087 1.139-.021 1.556c.066.416.518 3.388.387 3.586-.132.197-9.659.043-9.834-.045-.175-.088-.175-.811.044-1.029.219-.219 1.139-.329 1.401-.438.263-.11 3.894-2.209 4.135-2.515.241-.307.312-1.099.333-1.734.022-.635 3.555.619 3.555.619z" fill="#6C4E4E"/><path d="M298.131 219.576c.238-.217 1.239-.325 1.525-.433.286-.108 4.236-2.184 4.498-2.487.262-.304.34-1.087.363-1.715.009-.236.555-.209 1.233-.082.082.3.141.605.197.907.107.578.211 1.153.346 1.727.154.651.332 1.298.527 1.941.131.432.269.861.412 1.29-2.93.041-9.005-.063-9.15-.129-.19-.087-.19-.802.048-1.019h.001z" fill="#4A3333"/><path d="M307.935 220.463s.124 0 .124.187.011.518-.051.549c-.063.031-2.365.031-2.397.011-.031-.021-.062-.353-.124-.395-.062-.041-.654.405-.747.415-.093.011-6.629-.031-6.712-.062-.083-.031-.146-.56-.135-.622.01-.062.093-.052.093-.052l9.949-.031z" fill="#000"/><path d="M303.866 216.149c.083-.363.116-.824.13-1.223.021-.635 3.555.62 3.555.62s-.035.456-.044.896c-.435.102-1.661.495-1.737.38-.09-.134.156-.56-.605-.649a6.364 6.364 0 0 0-1.298-.025l-.001.001z" fill="#EA956B"/><path d="M299.057 197.239s-.088 1.139-.021 1.555c.065.416.518 3.389.386 3.586-.132.197-9.659.043-9.834-.045-.174-.088-.174-.811.044-1.029.219-.219 1.139-.329 1.402-.438.263-.109 3.894-2.208 4.134-2.515.241-.307.313-1.099.334-1.734.022-.635 3.555.62 3.555.62z" fill="#6C4E4E"/><path d="M299.442 202.154s.125 0 .125.187.01.518-.052.549c-.062.032-2.365.032-2.396.011-.031-.021-.062-.353-.125-.395-.062-.041-.653.405-.746.416-.094.01-6.63-.032-6.713-.063-.083-.031-.145-.56-.135-.622.011-.062.094-.052.094-.052l9.948-.031z" fill="#181818"/><path d="M295.373 197.841c.082-.364.116-.825.129-1.223.022-.635 3.555.62 3.555.62s-.035.456-.044.896c-.434.101-1.66.495-1.737.38-.089-.134.157-.56-.604-.649a6.363 6.363 0 0 0-1.298-.025l-.001.001z" fill="#EA956B"/><path d="M296.505 172.103c.562.538 3.326.464 5.326-.631 1.132-.62 1.763-1.726 1.988-2.399.527-1.581.408-2.896.653-3.018.244-.123 4.282.571 4.608.734.327.163-.015.811.245 2.528.465 3.071 1.294 3.202 1.294 3.202s-.062 7.594-.225 12.978c-.163 5.383-2.843 30.643-2.843 30.643l-3.732-.664-1.988-15.938v-14.041l-4.905 1.644 2.213 10.183s-3.52.907-3.984.443c-.465-.465-5.092-11.954-5.092-14.168 0-3.321 6.393-9.688 6.442-11.496z" fill="#58929B"/><path d="M304.226 181.602c.265-.266.331-2.986.331-4.312l-4.975-.332c0 1.437.066 4.378.332 4.644.18.18.88.676 1.518 1.114a1.3 1.3 0 0 0 1.558-.066c.516-.421 1.064-.877 1.236-1.048zm5.328-4.65h.995v6.302c-.531 0-.885-.553-.995-.995v-5.307z" fill="#426D74"/><path d="M284.836 148.214l-.002-.002.007.005h-.001l-.003-.003h-.001z" fill="#DD825C"/><path d="M185.355 65.598v-4.195l34.755 48.259-.664 3.542-34.091-47.606z" fill="#989797"/><path d="M219.446 113.204v-3.542h80.136v3.542h-80.136z" fill="#767475"/><path d="M185.355 61.403l81.243 1.55 32.098 46.045-78.143-.664-35.198-46.93z" fill="url(#paint6_linear_29_851)"/><path d="M185.355 61.403l81.243 1.55 32.098 46.045-78.143-.664-35.198-46.93z" fill="url(#paint7_linear_29_851)" fill-opacity=".2"/><path d="M198.195 63.617l33.205 44.052m-22.137-44.052l33.206 44.052m-22.137-44.052l33.205 44.052m-22.58-44.052l33.206 44.052m-22.137-44.052l33.205 44.052m-21.472-44.273l31.655 44.274M194.21 71.366h76.595m-70.396 7.747h76.595m-71.725 7.527h76.595m-70.84 7.526h76.595m-71.725 7.526h76.595" stroke="#fff" stroke-opacity=".6" stroke-width=".458"/><path d="M220.259 108.516L187.598 62.58l78.836 1.068 30.965 44.868h-77.14z" stroke="#BAB9BA" stroke-width="2.292"/><path opacity=".3" d="M207.935 63.838h5.977l60.434 43.389h-4.87l-61.541-43.389zm12.175.222h8.412l60.434 43.167h-7.748L220.11 64.06z" fill="#fff"/></g><defs><linearGradient id="paint0_linear_29_851" x1="193.455" y1="127.589" x2="277.109" y2="149.733" gradientUnits="userSpaceOnUse"><stop stop-color="#262D53"/><stop offset=".958" stop-color="#383F65"/></linearGradient><linearGradient id="paint1_linear_29_851" x1="297.056" y1="127.146" x2="380.71" y2="149.29" gradientUnits="userSpaceOnUse"><stop stop-color="#262D53"/><stop offset=".958" stop-color="#383F65"/></linearGradient><linearGradient id="paint2_linear_29_851" x1="190.798" y1="127.146" x2="274.453" y2="149.29" gradientUnits="userSpaceOnUse"><stop stop-color="#262D53"/><stop offset=".958" stop-color="#383F65"/></linearGradient><linearGradient id="paint3_linear_29_851" x1="246.453" y1="121.837" x2="199.302" y2="167.66" gradientUnits="userSpaceOnUse"><stop stop-color="#FEF2DB"/><stop offset="1" stop-color="#FEE6B7" stop-opacity="0"/></linearGradient><linearGradient id="paint4_linear_29_851" x1="293.071" y1="127.146" x2="376.726" y2="149.29" gradientUnits="userSpaceOnUse"><stop stop-color="#262D53"/><stop offset=".958" stop-color="#383F65"/></linearGradient><linearGradient id="paint5_linear_29_851" x1="351.161" y1="123.608" x2="302.46" y2="163.454" gradientUnits="userSpaceOnUse"><stop offset=".167" stop-color="#FEF2DB"/><stop offset="1" stop-color="#FEE6B7" stop-opacity="0"/></linearGradient><linearGradient id="paint6_linear_29_851" x1="209.836" y1="68.705" x2="293.491" y2="90.849" gradientUnits="userSpaceOnUse"><stop stop-color="#262D53"/><stop offset=".958" stop-color="#383F65"/></linearGradient><linearGradient id="paint7_linear_29_851" x1="263.942" y1="64.945" x2="216.347" y2="111.211" gradientUnits="userSpaceOnUse"><stop stop-color="#FEF2DB"/><stop offset=".995" stop-color="#FEE6B7" stop-opacity="0"/></linearGradient><clipPath id="clip0_29_851"><path fill="#fff" d="M0 0h494v320H0z"/></clipPath></defs></svg>